<?xml version="1.0" encoding="UTF-8" standalone="no"?>
<svg
   xmlns:dc="http://purl.org/dc/elements/1.1/"
   xmlns:cc="http://creativecommons.org/ns#"
   xmlns:rdf="http://www.w3.org/1999/02/22-rdf-syntax-ns#"
   xmlns:svg="http://www.w3.org/2000/svg"
   xmlns="http://www.w3.org/2000/svg"
   xmlns:sodipodi="http://sodipodi.sourceforge.net/DTD/sodipodi-0.dtd"
   xmlns:inkscape="http://www.inkscape.org/namespaces/inkscape"
   version="1.1"
   viewBox="0 0 417.4724 210.51396"
   stroke-miterlimit="10"
   id="svg3026"
   inkscape:version="0.48.4 r9939"
   width="100%"
   height="100%"
   sodipodi:docname="Peel Manual Figures(1).svg"
   style="fill:none;stroke:none">
  <metadata
     id="metadata3099">
    <rdf:RDF>
      <cc:Work
         rdf:about="">
        <dc:format>image/svg+xml</dc:format>
        <dc:type
           rdf:resource="http://purl.org/dc/dcmitype/StillImage" />
      </cc:Work>
    </rdf:RDF>
  </metadata>
  <defs
     id="defs3097" />
  <sodipodi:namedview
     pagecolor="#ffffff"
     bordercolor="#666666"
     borderopacity="1"
     objecttolerance="10"
     gridtolerance="10"
     guidetolerance="10"
     inkscape:pageopacity="0"
     inkscape:pageshadow="2"
     inkscape:window-width="1920"
     inkscape:window-height="1024"
     id="namedview3095"
     showgrid="false"
     inkscape:zoom="0.65555556"
     inkscape:cx="-171.07483"
     inkscape:cy="246.5862"
     inkscape:window-x="1440"
     inkscape:window-y="27"
     inkscape:window-maximized="1"
     inkscape:current-layer="svg3026" />
  <clipPath
     id="gb39b3d238_0_18.0">
    <path
       d="M 0,0 960,0 960,720 0,720 0,0 z"
       clip-rule="nonzero"
       id="path3029"
       inkscape:connector-curvature="0" />
  </clipPath>
  <path
     style="fill:#e4f5e3;fill-rule:nonzero"
     inkscape:connector-curvature="0"
     id="path3035"
     d="m 0.5,53.83201 416.4724,0 0,46.02508 -416.4724,0 z" />
  <path
     style="stroke:#40a13b;stroke-width:1;stroke-linecap:butt;stroke-linejoin:round"
     inkscape:connector-curvature="0"
     id="path3037"
     d="m 0.5,53.83201 416.4724,0 0,46.02508 -416.4724,0 z" />
  <path
     style="fill:#033300;fill-rule:nonzero"
     inkscape:connector-curvature="0"
     id="path3039"
     d="m 10.35937,79.38956 1.6875,-0.14063 q 0.125,1.01563 0.5625,1.67188 0.4375,0.65625 1.35938,1.0625 0.9375,0.40625 2.09375,0.40625 1.03125,0 1.8125,-0.3125 0.79687,-0.3125 1.1875,-0.84375 0.39062,-0.53125 0.39062,-1.15625 0,-0.64063 -0.375,-1.10938 -0.375,-0.48437 -1.23437,-0.8125 -0.54688,-0.21875 -2.42188,-0.65625 -1.875,-0.45312 -2.625,-0.85937 -0.96875,-0.51563 -1.45312,-1.26563 -0.46875,-0.75 -0.46875,-1.6875 0,-1.03125 0.57812,-1.92187 0.59375,-0.90625 1.70313,-1.35938 1.125,-0.46875 2.5,-0.46875 1.51562,0 2.67187,0.48438 1.15625,0.48437 1.76563,1.4375 0.625,0.9375 0.67187,2.14062 l -1.71875,0.125 q -0.14062,-1.28125 -0.95312,-1.9375 -0.79688,-0.67187 -2.35938,-0.67187 -1.625,0 -2.375,0.60937 -0.75,0.59375 -0.75,1.4375 0,0.73438 0.53125,1.20313 0.51563,0.46875 2.70313,0.96875 2.20312,0.5 3.01562,0.875 1.1875,0.54687 1.75,1.39062 0.57813,0.82813 0.57813,1.92188 0,1.09375 -0.625,2.0625 -0.625,0.95312 -1.79688,1.48437 -1.15625,0.53125 -2.60937,0.53125 -1.84375,0 -3.09375,-0.53125 -1.25,-0.54687 -1.96875,-1.625 -0.70313,-1.07812 -0.73438,-2.45312 z m 12.75607,8.17187 -0.17187,-1.5625 q 0.54687,0.14063 0.95312,0.14063 0.54688,0 0.875,-0.1875 0.34375,-0.1875 0.5625,-0.51563 0.15625,-0.25 0.5,-1.25 0.0469,-0.14062 0.15625,-0.40625 l -3.73437,-9.875 1.79687,0 2.04688,5.71875 q 0.40625,1.07813 0.71875,2.28125 0.28125,-1.15625 0.6875,-2.25 l 2.09375,-5.75 1.67187,0 -3.75,10.03125 q -0.59375,1.625 -0.9375,2.23438 -0.4375,0.82812 -1.01562,1.20312 -0.57813,0.39063 -1.375,0.39063 -0.48438,0 -1.07813,-0.20313 z m 8.73438,-6.73437 1.65625,-0.26563 q 0.14062,1 0.76562,1.53125 0.64063,0.51563 1.78125,0.51563 1.15625,0 1.70313,-0.46875 0.5625,-0.46875 0.5625,-1.09375 0,-0.5625 -0.48438,-0.89063 -0.34375,-0.21875 -1.70312,-0.5625 -1.84375,-0.46875 -2.5625,-0.79687 -0.70313,-0.34375 -1.07813,-0.9375 -0.35937,-0.60938 -0.35937,-1.32813 0,-0.65625 0.29687,-1.21875 0.3125,-0.5625 0.82813,-0.9375 0.39062,-0.28125 1.0625,-0.48437 0.67187,-0.20313 1.4375,-0.20313 1.17187,0 2.04687,0.34375 0.875,0.32813 1.28125,0.90625 0.42188,0.5625 0.57813,1.51563 l -1.625,0.21875 q -0.10938,-0.75 -0.65625,-1.17188 -0.53125,-0.4375 -1.5,-0.4375 -1.15625,0 -1.64063,0.39063 -0.48437,0.375 -0.48437,0.875 0,0.32812 0.20312,0.59375 0.20313,0.26562 0.64063,0.4375 0.25,0.0937 1.46875,0.4375 1.76562,0.46875 2.46875,0.76562 0.70312,0.29688 1.09375,0.875 0.40625,0.57813 0.40625,1.4375 0,0.82813 -0.48438,1.57813 -0.48437,0.73437 -1.40625,1.14062 -0.92187,0.39063 -2.07812,0.39063 -1.92188,0 -2.9375,-0.79688 -1,-0.79687 -1.28125,-2.35937 z m 13.65625,1.4375 0.23437,1.48437 q -0.70312,0.14063 -1.26562,0.14063 -0.90625,0 -1.40625,-0.28125 -0.5,-0.29688 -0.70313,-0.75 -0.20312,-0.46875 -0.20312,-1.98438 l 0,-5.65625 -1.23438,0 0,-1.3125 1.23438,0 0,-2.4375 1.65625,-1 0,3.4375 1.6875,0 0,1.3125 -1.6875,0 0,5.75 q 0,0.71875 0.0781,0.92188 0.0937,0.20312 0.29688,0.32812 0.20312,0.125 0.57812,0.125 0.26563,0 0.73438,-0.0781 z m 8.27704,-1.67188 1.71875,0.21875 q -0.40625,1.5 -1.51563,2.34375 -1.09375,0.82813 -2.8125,0.82813 -2.15625,0 -3.42187,-1.32813 -1.26563,-1.32812 -1.26563,-3.73437 0,-2.48438 1.26563,-3.85938 1.28125,-1.375 3.32812,-1.375 1.98438,0 3.23438,1.34375 1.25,1.34375 1.25,3.79688 0,0.14062 -0.0156,0.4375 l -7.34375,0 q 0.0937,1.625 0.92188,2.48437 0.82812,0.85938 2.0625,0.85938 0.90625,0 1.54687,-0.46875 0.65625,-0.48438 1.04688,-1.54688 z m -5.48438,-2.70312 5.5,0 q -0.10937,-1.23438 -0.625,-1.85938 -0.79687,-0.96875 -2.07812,-0.96875 -1.14063,0 -1.9375,0.78125 -0.78125,0.76563 -0.85938,2.04688 z m 9.11011,5.875 0,-9.85938 1.5,0 0,1.39063 q 0.45312,-0.71875 1.21875,-1.15625 0.78125,-0.45313 1.76562,-0.45313 1.09375,0 1.79688,0.45313 0.70312,0.45312 0.98437,1.28125 1.17188,-1.73438 3.04688,-1.73438 1.46875,0 2.25,0.8125 0.79687,0.8125 0.79687,2.5 l 0,6.76563 -1.67187,0 0,-6.20313 q 0,-1 -0.15625,-1.4375 -0.15625,-0.45312 -0.59375,-0.71875 -0.42188,-0.26562 -1,-0.26562 -1.03125,0 -1.71875,0.6875 -0.6875,0.6875 -0.6875,2.21875 l 0,5.71875 -1.67188,0 0,-6.40625 q 0,-1.10938 -0.40625,-1.65625 -0.40625,-0.5625 -1.34375,-0.5625 -0.70312,0 -1.3125,0.375 -0.59375,0.35937 -0.85937,1.07812 -0.26563,0.71875 -0.26563,2.0625 l 0,5.10938 -1.67187,0 z m 30.64596,-4.76563 1.79688,0.45313 q -0.5625,2.21875 -2.03125,3.39062 -1.46875,1.15625 -3.59375,1.15625 -2.20313,0 -3.57813,-0.89062 -1.375,-0.90625 -2.09375,-2.59375 -0.71875,-1.70313 -0.71875,-3.65625 0,-2.125 0.79688,-3.70313 0.8125,-1.57812 2.3125,-2.39062 1.5,-0.82813 3.29687,-0.82813 2.04688,0 3.4375,1.04688 1.39063,1.03125 1.9375,2.90625 l -1.76562,0.42187 q -0.46875,-1.48437 -1.375,-2.15625 -0.90625,-0.6875 -2.26563,-0.6875 -1.5625,0 -2.625,0.75 -1.04687,0.75 -1.48437,2.03125 -0.42188,1.26563 -0.42188,2.60938 0,1.73437 0.5,3.03125 0.51563,1.28125 1.57813,1.92187 1.07812,0.64063 2.3125,0.64063 1.51562,0 2.5625,-0.85938 1.04687,-0.875 1.42187,-2.59375 z m 11.92188,8.76563 q -1.375,-1.75 -2.32813,-4.07813 -0.95312,-2.34375 -0.95312,-4.84375 0,-2.21875 0.70312,-4.23437 0.84375,-2.34375 2.57813,-4.67188 l 1.20312,0 q -1.125,1.92188 -1.48437,2.75 -0.5625,1.28125 -0.89063,2.67188 -0.40625,1.73437 -0.40625,3.48437 0,4.46875 2.78125,8.92188 l -1.20312,0 z m 12.1658,-17.59375 1.79688,0 0,7.84375 q 0,2.0625 -0.46875,3.26562 -0.45313,1.20313 -1.67188,1.96875 -1.20312,0.75 -3.17187,0.75 -1.90625,0 -3.125,-0.65625 -1.21875,-0.65625 -1.73438,-1.90625 -0.51562,-1.25 -0.51562,-3.42187 l 0,-7.84375 1.79687,0 0,7.84375 q 0,1.76562 0.32813,2.60937 0.32812,0.84375 1.125,1.29688 0.8125,0.45312 1.96875,0.45312 1.98437,0 2.82812,-0.89062 0.84375,-0.90625 0.84375,-3.46875 l 0,-7.84375 z m 4.33234,13.59375 0,-9.85938 1.5,0 0,1.40625 q 1.09375,-1.625 3.14062,-1.625 0.89063,0 1.64063,0.32813 0.75,0.3125 1.10937,0.84375 0.375,0.51562 0.53125,1.21875 0.0937,0.46875 0.0937,1.625 l 0,6.0625 -1.67187,0 0,-6 q 0,-1.01563 -0.20313,-1.51563 -0.1875,-0.51562 -0.6875,-0.8125 -0.5,-0.29687 -1.17187,-0.29687 -1.0625,0 -1.84375,0.67187 -0.76563,0.67188 -0.76563,2.57813 l 0,5.375 -1.67187,0 z m 16.76633,0 0,-1.25 q -0.9375,1.46875 -2.75,1.46875 -1.17188,0 -2.17188,-0.64063 -0.98437,-0.65625 -1.53125,-1.8125 -0.53125,-1.17187 -0.53125,-2.6875 0,-1.46875 0.48438,-2.67187 0.5,-1.20313 1.46875,-1.84375 0.98437,-0.64063 2.20312,-0.64063 0.89063,0 1.57813,0.375 0.70312,0.375 1.14062,0.98438 l 0,-4.875 1.65625,0 0,13.59375 -1.54687,0 z m -5.28125,-4.92188 q 0,1.89063 0.79687,2.82813 0.8125,0.9375 1.89063,0.9375 1.09375,0 1.85937,-0.89063 0.76563,-0.89062 0.76563,-2.73437 0,-2.01563 -0.78125,-2.95313 -0.78125,-0.95312 -1.92188,-0.95312 -1.10937,0 -1.85937,0.90625 -0.75,0.90625 -0.75,2.85937 z m 16.01635,1.75 1.71875,0.21875 q -0.40625,1.5 -1.51562,2.34375 -1.09375,0.82813 -2.8125,0.82813 -2.15625,0 -3.42188,-1.32813 -1.26562,-1.32812 -1.26562,-3.73437 0,-2.48438 1.26562,-3.85938 1.28125,-1.375 3.32813,-1.375 1.98437,0 3.23437,1.34375 1.25,1.34375 1.25,3.79688 0,0.14062 -0.0156,0.4375 l -7.34375,0 q 0.0937,1.625 0.92187,2.48437 0.82813,0.85938 2.0625,0.85938 0.90625,0 1.54688,-0.46875 0.65625,-0.48438 1.04687,-1.54688 z m -5.48437,-2.70312 5.5,0 q -0.10938,-1.23438 -0.625,-1.85938 -0.79688,-0.96875 -2.07813,-0.96875 -1.14062,0 -1.9375,0.78125 -0.78125,0.76563 -0.85937,2.04688 z m 9.09445,5.875 0,-9.85938 1.5,0 0,1.5 q 0.57812,-1.04687 1.0625,-1.375 0.48437,-0.34375 1.07812,-0.34375 0.84375,0 1.71875,0.54688 l -0.57812,1.54687 q -0.60938,-0.35937 -1.23438,-0.35937 -0.54687,0 -0.98437,0.32812 -0.42188,0.32813 -0.60938,0.90625 -0.28125,0.89063 -0.28125,1.95313 l 0,5.15625 -1.67187,0 z m 15.0835,0 0,-12 -4.46875,0 0,-1.59375 10.76562,0 0,1.59375 -4.5,0 0,12 -1.79687,0 z m 14.47409,-3.17188 1.71875,0.21875 q -0.40625,1.5 -1.51563,2.34375 -1.09375,0.82813 -2.8125,0.82813 -2.15625,0 -3.42187,-1.32813 -1.26563,-1.32812 -1.26563,-3.73437 0,-2.48438 1.26563,-3.85938 1.28125,-1.375 3.32812,-1.375 1.98438,0 3.23438,1.34375 1.25,1.34375 1.25,3.79688 0,0.14062 -0.0156,0.4375 l -7.34375,0 q 0.0937,1.625 0.92188,2.48437 0.82812,0.85938 2.0625,0.85938 0.90625,0 1.54687,-0.46875 0.65625,-0.48438 1.04688,-1.54688 z m -5.48438,-2.70312 5.5,0 q -0.10937,-1.23438 -0.625,-1.85938 -0.79687,-0.96875 -2.07812,-0.96875 -1.14063,0 -1.9375,0.78125 -0.78125,0.76563 -0.85938,2.04688 z m 8.43823,2.9375 1.65625,-0.26563 q 0.14063,1 0.76563,1.53125 0.64062,0.51563 1.78125,0.51563 1.15625,0 1.70312,-0.46875 0.5625,-0.46875 0.5625,-1.09375 0,-0.5625 -0.48437,-0.89063 -0.34375,-0.21875 -1.70313,-0.5625 -1.84375,-0.46875 -2.5625,-0.79687 -0.70312,-0.34375 -1.07812,-0.9375 -0.35938,-0.60938 -0.35938,-1.32813 0,-0.65625 0.29688,-1.21875 0.3125,-0.5625 0.82812,-0.9375 0.39063,-0.28125 1.0625,-0.48437 0.67188,-0.20313 1.4375,-0.20313 1.17188,0 2.04688,0.34375 0.875,0.32813 1.28125,0.90625 0.42187,0.5625 0.57812,1.51563 l -1.625,0.21875 q -0.10937,-0.75 -0.65625,-1.17188 -0.53125,-0.4375 -1.5,-0.4375 -1.15625,0 -1.64062,0.39063 -0.48438,0.375 -0.48438,0.875 0,0.32812 0.20313,0.59375 0.20312,0.26562 0.64062,0.4375 0.25,0.0937 1.46875,0.4375 1.76563,0.46875 2.46875,0.76562 0.70313,0.29688 1.09375,0.875 0.40625,0.57813 0.40625,1.4375 0,0.82813 -0.48437,1.57813 -0.48438,0.73437 -1.40625,1.14062 -0.92188,0.39063 -2.07813,0.39063 -1.92187,0 -2.9375,-0.79688 -1,-0.79687 -1.28125,-2.35937 z m 13.65625,1.4375 0.23438,1.48437 q -0.70313,0.14063 -1.26563,0.14063 -0.90625,0 -1.40625,-0.28125 -0.5,-0.29688 -0.70312,-0.75 -0.20313,-0.46875 -0.20313,-1.98438 l 0,-5.65625 -1.23437,0 0,-1.3125 1.23437,0 0,-2.4375 1.65625,-1 0,3.4375 1.6875,0 0,1.3125 -1.6875,0 0,5.75 q 0,0.71875 0.0781,0.92188 0.0937,0.20312 0.29687,0.32812 0.20313,0.125 0.57813,0.125 0.26562,0 0.73437,-0.0781 z m 2.62079,5.5 -1.1875,0 q 2.76563,-4.45313 2.76563,-8.92188 0,-1.73437 -0.39063,-3.45312 -0.32812,-1.39063 -0.89062,-2.67188 -0.35938,-0.84375 -1.48438,-2.78125 l 1.1875,0 q 1.75,2.32813 2.57813,4.67188 0.71875,2.01562 0.71875,4.23437 0,2.5 -0.96875,4.84375 -0.95313,2.32813 -2.32813,4.07813 z" />
  <path
     style="fill:#8ad386;fill-rule:nonzero"
     inkscape:connector-curvature="0"
     id="path3041"
     d="m 334.6785,59.73224 78.74017,0 0,35.4007 -78.74017,0 z" />
  <path
     style="stroke:#40a13b;stroke-width:1;stroke-linecap:butt;stroke-linejoin:round;stroke-dasharray:1, 3"
     inkscape:connector-curvature="0"
     id="path3043"
     d="m 334.6785,59.73224 78.74017,0 0,35.4007 -78.74017,0 z" />
  <path
     style="fill:#033300;fill-rule:nonzero"
     inkscape:connector-curvature="0"
     id="path3045"
     d="m 358.2564,79.58695 1.79688,0.45312 q -0.5625,2.21875 -2.03125,3.39063 -1.46875,1.15625 -3.59375,1.15625 -2.20313,0 -3.57813,-0.89063 -1.375,-0.90625 -2.09375,-2.59375 -0.71875,-1.70312 -0.71875,-3.65625 0,-2.125 0.79688,-3.70312 0.8125,-1.57813 2.3125,-2.39063 1.5,-0.82812 3.29687,-0.82812 2.04688,0 3.4375,1.04687 1.39063,1.03125 1.9375,2.90625 l -1.76562,0.42188 q -0.46875,-1.48438 -1.375,-2.15625 -0.90625,-0.6875 -2.26563,-0.6875 -1.5625,0 -2.625,0.75 -1.04687,0.75 -1.48437,2.03125 -0.42188,1.26562 -0.42188,2.60937 0,1.73438 0.5,3.03125 0.51563,1.28125 1.57813,1.92188 1.07812,0.64062 2.3125,0.64062 1.51562,0 2.5625,-0.85937 1.04687,-0.875 1.42187,-2.59375 z m 2.92603,-0.15625 q 0,-2.73438 1.53125,-4.0625 1.26562,-1.09375 3.09375,-1.09375 2.03125,0 3.3125,1.34375 1.29687,1.32812 1.29687,3.67187 0,1.90625 -0.57812,3 -0.5625,1.07813 -1.65625,1.6875 -1.07813,0.59375 -2.375,0.59375 -2.0625,0 -3.34375,-1.32812 -1.28125,-1.32813 -1.28125,-3.8125 z m 1.71875,0 q 0,1.89062 0.82812,2.82812 0.82813,0.9375 2.07813,0.9375 1.25,0 2.0625,-0.9375 0.82812,-0.95312 0.82812,-2.89062 0,-1.82813 -0.82812,-2.76563 -0.82813,-0.9375 -2.0625,-0.9375 -1.25,0 -2.07813,0.9375 -0.82812,0.9375 -0.82812,2.82813 z m 9.28198,4.92187 0,-9.85937 1.5,0 0,1.40625 q 1.09375,-1.625 3.14062,-1.625 0.89063,0 1.64063,0.32812 0.75,0.3125 1.10937,0.84375 0.375,0.51563 0.53125,1.21875 0.0937,0.46875 0.0937,1.625 l 0,6.0625 -1.67187,0 0,-6 q 0,-1.01562 -0.20313,-1.51562 -0.1875,-0.51563 -0.6875,-0.8125 -0.5,-0.29688 -1.17187,-0.29688 -1.0625,0 -1.84375,0.67188 -0.76563,0.67187 -0.76563,2.57812 l 0,5.375 -1.67187,0 z m 10.78198,0 0,-8.54687 -1.48438,0 0,-1.3125 1.48438,0 0,-1.04688 q 0,-0.98437 0.17187,-1.46875 0.23438,-0.65625 0.84375,-1.04687 0.60938,-0.40625 1.70313,-0.40625 0.70312,0 1.5625,0.15625 l -0.25,1.46875 q -0.51563,-0.0937 -0.98438,-0.0937 -0.76562,0 -1.07812,0.32812 -0.3125,0.3125 -0.3125,1.20313 l 0,0.90625 1.92187,0 0,1.3125 -1.92187,0 0,8.54687 -1.65625,0 z m 4.79266,-11.6875 0,-1.90625 1.67188,0 0,1.90625 -1.67188,0 z m 0,11.6875 0,-9.85937 1.67188,0 0,9.85937 -1.67188,0 z m 3.83234,0.8125 1.60937,0.25 q 0.10938,0.75 0.57813,1.09375 0.60937,0.45313 1.6875,0.45313 1.17187,0 1.79687,-0.46875 0.625,-0.45313 0.85938,-1.28125 0.125,-0.51563 0.10937,-2.15625 -1.09375,1.29687 -2.71875,1.29687 -2.03125,0 -3.15625,-1.46875 -1.10937,-1.46875 -1.10937,-3.51562 0,-1.40625 0.51562,-2.59375 0.51563,-1.20313 1.48438,-1.84375 0.96875,-0.65625 2.26562,-0.65625 1.75,0 2.875,1.40625 l 0,-1.1875 1.54688,0 0,8.51562 q 0,2.3125 -0.46875,3.26563 -0.46875,0.96875 -1.48438,1.51562 -1.01562,0.5625 -2.5,0.5625 -1.76562,0 -2.85937,-0.79687 -1.07813,-0.79688 -1.03125,-2.39063 z m 1.375,-5.92187 q 0,1.95312 0.76562,2.84375 0.78125,0.89062 1.9375,0.89062 1.14063,0 1.92188,-0.89062 0.78125,-0.89063 0.78125,-2.78125 0,-1.8125 -0.8125,-2.71875 -0.79688,-0.92188 -1.92188,-0.92188 -1.10937,0 -1.89062,0.90625 -0.78125,0.89063 -0.78125,2.67188 z" />
  <path
     style="fill:#e4f5e3;fill-rule:nonzero"
     inkscape:connector-curvature="0"
     id="path3047"
     d="m 0.5,108.21384 208.47241,0 0,46.02508 -208.47241,0 z" />
  <path
     style="stroke:#40a13b;stroke-width:1;stroke-linecap:butt;stroke-linejoin:round"
     inkscape:connector-curvature="0"
     id="path3049"
     d="m 0.5,108.21384 208.47241,0 0,46.02508 -208.47241,0 z" />
  <path
     style="fill:#033300;fill-rule:nonzero"
     inkscape:connector-curvature="0"
     id="path3051"
     d="m 10.35937,133.77136 1.6875,-0.14063 q 0.125,1.01563 0.5625,1.67188 0.4375,0.65625 1.35938,1.0625 0.9375,0.40625 2.09375,0.40625 1.03125,0 1.8125,-0.3125 0.79687,-0.3125 1.1875,-0.84375 0.39062,-0.53125 0.39062,-1.15625 0,-0.64063 -0.375,-1.10938 -0.375,-0.48437 -1.23437,-0.8125 -0.54688,-0.21875 -2.42188,-0.65625 -1.875,-0.45312 -2.625,-0.85937 -0.96875,-0.51563 -1.45312,-1.26563 -0.46875,-0.75 -0.46875,-1.6875 0,-1.03125 0.57812,-1.92187 0.59375,-0.90625 1.70313,-1.35938 1.125,-0.46875 2.5,-0.46875 1.51562,0 2.67187,0.48438 1.15625,0.48437 1.76563,1.4375 0.625,0.9375 0.67187,2.14062 l -1.71875,0.125 q -0.14062,-1.28125 -0.95312,-1.9375 -0.79688,-0.67187 -2.35938,-0.67187 -1.625,0 -2.375,0.60937 -0.75,0.59375 -0.75,1.4375 0,0.73438 0.53125,1.20313 0.51563,0.46875 2.70313,0.96875 2.20312,0.5 3.01562,0.875 1.1875,0.54687 1.75,1.39062 0.57813,0.82813 0.57813,1.92188 0,1.09375 -0.625,2.0625 -0.625,0.95312 -1.79688,1.48437 -1.15625,0.53125 -2.60937,0.53125 -1.84375,0 -3.09375,-0.53125 -1.25,-0.54687 -1.96875,-1.625 -0.70313,-1.07812 -0.73438,-2.45312 z m 12.75607,8.17187 -0.17187,-1.5625 q 0.54687,0.14063 0.95312,0.14063 0.54688,0 0.875,-0.1875 0.34375,-0.1875 0.5625,-0.51563 0.15625,-0.25 0.5,-1.25 0.0469,-0.14062 0.15625,-0.40625 l -3.73437,-9.875 1.79687,0 2.04688,5.71875 q 0.40625,1.07813 0.71875,2.28125 0.28125,-1.15625 0.6875,-2.25 l 2.09375,-5.75 1.67187,0 -3.75,10.03125 q -0.59375,1.625 -0.9375,2.23438 -0.4375,0.82812 -1.01562,1.20312 -0.57813,0.39063 -1.375,0.39063 -0.48438,0 -1.07813,-0.20313 z m 8.73438,-6.73437 1.65625,-0.26563 q 0.14062,1 0.76562,1.53125 0.64063,0.51563 1.78125,0.51563 1.15625,0 1.70313,-0.46875 0.5625,-0.46875 0.5625,-1.09375 0,-0.5625 -0.48438,-0.89063 -0.34375,-0.21875 -1.70312,-0.5625 -1.84375,-0.46875 -2.5625,-0.79687 -0.70313,-0.34375 -1.07813,-0.9375 -0.35937,-0.60938 -0.35937,-1.32813 0,-0.65625 0.29687,-1.21875 0.3125,-0.5625 0.82813,-0.9375 0.39062,-0.28125 1.0625,-0.48437 0.67187,-0.20313 1.4375,-0.20313 1.17187,0 2.04687,0.34375 0.875,0.32813 1.28125,0.90625 0.42188,0.5625 0.57813,1.51563 l -1.625,0.21875 q -0.10938,-0.75 -0.65625,-1.17188 -0.53125,-0.4375 -1.5,-0.4375 -1.15625,0 -1.64063,0.39063 -0.48437,0.375 -0.48437,0.875 0,0.32812 0.20312,0.59375 0.20313,0.26562 0.64063,0.4375 0.25,0.0937 1.46875,0.4375 1.76562,0.46875 2.46875,0.76562 0.70312,0.29688 1.09375,0.875 0.40625,0.57813 0.40625,1.4375 0,0.82813 -0.48438,1.57813 -0.48437,0.73437 -1.40625,1.14062 -0.92187,0.39063 -2.07812,0.39063 -1.92188,0 -2.9375,-0.79688 -1,-0.79687 -1.28125,-2.35937 z m 13.65625,1.4375 0.23437,1.48437 q -0.70312,0.14063 -1.26562,0.14063 -0.90625,0 -1.40625,-0.28125 -0.5,-0.29688 -0.70313,-0.75 -0.20312,-0.46875 -0.20312,-1.98438 l 0,-5.65625 -1.23438,0 0,-1.3125 1.23438,0 0,-2.4375 1.65625,-1 0,3.4375 1.6875,0 0,1.3125 -1.6875,0 0,5.75 q 0,0.71875 0.0781,0.92188 0.0937,0.20312 0.29688,0.32812 0.20312,0.125 0.57812,0.125 0.26563,0 0.73438,-0.0781 z m 8.27704,-1.67188 1.71875,0.21875 q -0.40625,1.5 -1.51563,2.34375 -1.09375,0.82813 -2.8125,0.82813 -2.15625,0 -3.42187,-1.32813 -1.26563,-1.32812 -1.26563,-3.73437 0,-2.48438 1.26563,-3.85938 1.28125,-1.375 3.32812,-1.375 1.98438,0 3.23438,1.34375 1.25,1.34375 1.25,3.79688 0,0.14062 -0.0156,0.4375 l -7.34375,0 q 0.0937,1.625 0.92188,2.48437 0.82812,0.85938 2.0625,0.85938 0.90625,0 1.54687,-0.46875 0.65625,-0.48438 1.04688,-1.54688 z m -5.48438,-2.70312 5.5,0 q -0.10937,-1.23438 -0.625,-1.85938 -0.79687,-0.96875 -2.07812,-0.96875 -1.14063,0 -1.9375,0.78125 -0.78125,0.76563 -0.85938,2.04688 z m 9.11011,5.875 0,-9.85938 1.5,0 0,1.39063 q 0.45312,-0.71875 1.21875,-1.15625 0.78125,-0.45313 1.76562,-0.45313 1.09375,0 1.79688,0.45313 0.70312,0.45312 0.98437,1.28125 1.17188,-1.73438 3.04688,-1.73438 1.46875,0 2.25,0.8125 0.79687,0.8125 0.79687,2.5 l 0,6.76563 -1.67187,0 0,-6.20313 q 0,-1 -0.15625,-1.4375 -0.15625,-0.45312 -0.59375,-0.71875 -0.42188,-0.26562 -1,-0.26562 -1.03125,0 -1.71875,0.6875 -0.6875,0.6875 -0.6875,2.21875 l 0,5.71875 -1.67188,0 0,-6.40625 q 0,-1.10938 -0.40625,-1.65625 -0.40625,-0.5625 -1.34375,-0.5625 -0.70312,0 -1.3125,0.375 -0.59375,0.35937 -0.85937,1.07812 -0.26563,0.71875 -0.26563,2.0625 l 0,5.10938 -1.67187,0 z m 19.44284,0 5.23437,-13.59375 1.9375,0 5.5625,13.59375 -2.04687,0 -1.59375,-4.125 -5.6875,0 -1.48438,4.125 -1.92187,0 z m 3.92187,-5.57813 4.60938,0 -1.40625,-3.78125 q -0.65625,-1.70312 -0.96875,-2.8125 -0.26563,1.3125 -0.73438,2.59375 l -1.5,4 z" />
  <path
     style="fill:#8ad386;fill-rule:nonzero"
     inkscape:connector-curvature="0"
     id="path3053"
     d="m 126.67855,114.11408 78.74014,0 0,35.4007 -78.74014,0 z" />
  <path
     style="stroke:#40a13b;stroke-width:1;stroke-linecap:butt;stroke-linejoin:round;stroke-dasharray:1, 3"
     inkscape:connector-curvature="0"
     id="path3055"
     d="m 126.67855,114.11408 78.74014,0 0,35.4007 -78.74014,0 z" />
  <path
     style="fill:#033300;fill-rule:nonzero"
     inkscape:connector-curvature="0"
     id="path3057"
     d="m 150.25637,133.96881 1.79687,0.45312 q -0.5625,2.21875 -2.03125,3.39063 -1.46875,1.15625 -3.59375,1.15625 -2.20312,0 -3.57812,-0.89063 -1.375,-0.90625 -2.09375,-2.59375 -0.71875,-1.70312 -0.71875,-3.65625 0,-2.125 0.79687,-3.70312 0.8125,-1.57813 2.3125,-2.39063 1.5,-0.82812 3.29688,-0.82812 2.04687,0 3.4375,1.04687 1.39062,1.03125 1.9375,2.90625 l -1.76563,0.42188 q -0.46875,-1.48438 -1.375,-2.15625 -0.90625,-0.6875 -2.26562,-0.6875 -1.5625,0 -2.625,0.75 -1.04688,0.75 -1.48438,2.03125 -0.42187,1.26562 -0.42187,2.60937 0,1.73438 0.5,3.03125 0.51562,1.28125 1.57812,1.92188 1.07813,0.64062 2.3125,0.64062 1.51563,0 2.5625,-0.85937 1.04688,-0.875 1.42188,-2.59375 z m 2.92609,-0.15625 q 0,-2.73438 1.53125,-4.0625 1.26562,-1.09375 3.09375,-1.09375 2.03125,0 3.3125,1.34375 1.29687,1.32812 1.29687,3.67187 0,1.90625 -0.57812,3 -0.5625,1.07813 -1.65625,1.6875 -1.07813,0.59375 -2.375,0.59375 -2.0625,0 -3.34375,-1.32812 -1.28125,-1.32813 -1.28125,-3.8125 z m 1.71875,0 q 0,1.89062 0.82812,2.82812 0.82813,0.9375 2.07813,0.9375 1.25,0 2.0625,-0.9375 0.82812,-0.95312 0.82812,-2.89062 0,-1.82813 -0.82812,-2.76563 -0.82813,-0.9375 -2.0625,-0.9375 -1.25,0 -2.07813,0.9375 -0.82812,0.9375 -0.82812,2.82813 z m 9.28195,4.92187 0,-9.85937 1.5,0 0,1.40625 q 1.09375,-1.625 3.14062,-1.625 0.89063,0 1.64063,0.32812 0.75,0.3125 1.10937,0.84375 0.375,0.51563 0.53125,1.21875 0.0937,0.46875 0.0937,1.625 l 0,6.0625 -1.67187,0 0,-6 q 0,-1.01562 -0.20313,-1.51562 -0.1875,-0.51563 -0.6875,-0.8125 -0.5,-0.29688 -1.17187,-0.29688 -1.0625,0 -1.84375,0.67188 -0.76563,0.67187 -0.76563,2.57812 l 0,5.375 -1.67187,0 z m 10.78198,0 0,-8.54687 -1.48437,0 0,-1.3125 1.48437,0 0,-1.04688 q 0,-0.98437 0.17188,-1.46875 0.23437,-0.65625 0.84375,-1.04687 0.60937,-0.40625 1.70312,-0.40625 0.70313,0 1.5625,0.15625 l -0.25,1.46875 q -0.51562,-0.0937 -0.98437,-0.0937 -0.76563,0 -1.07813,0.32812 -0.3125,0.3125 -0.3125,1.20313 l 0,0.90625 1.92188,0 0,1.3125 -1.92188,0 0,8.54687 -1.65625,0 z m 4.79266,-11.6875 0,-1.90625 1.67188,0 0,1.90625 -1.67188,0 z m 0,11.6875 0,-9.85937 1.67188,0 0,9.85937 -1.67188,0 z m 3.83234,0.8125 1.60938,0.25 q 0.10937,0.75 0.57812,1.09375 0.60938,0.45313 1.6875,0.45313 1.17188,0 1.79688,-0.46875 0.625,-0.45313 0.85937,-1.28125 0.125,-0.51563 0.10938,-2.15625 -1.09375,1.29687 -2.71875,1.29687 -2.03125,0 -3.15625,-1.46875 -1.10938,-1.46875 -1.10938,-3.51562 0,-1.40625 0.51563,-2.59375 0.51562,-1.20313 1.48437,-1.84375 0.96875,-0.65625 2.26563,-0.65625 1.75,0 2.875,1.40625 l 0,-1.1875 1.54687,0 0,8.51562 q 0,2.3125 -0.46875,3.26563 -0.46875,0.96875 -1.48437,1.51562 -1.01563,0.5625 -2.5,0.5625 -1.76563,0 -2.85938,-0.79687 -1.07812,-0.79688 -1.03125,-2.39063 z m 1.375,-5.92187 q 0,1.95312 0.76563,2.84375 0.78125,0.89062 1.9375,0.89062 1.14062,0 1.92187,-0.89062 0.78125,-0.89063 0.78125,-2.78125 0,-1.8125 -0.8125,-2.71875 -0.79687,-0.92188 -1.92187,-0.92188 -1.10938,0 -1.89063,0.90625 -0.78125,0.89063 -0.78125,2.67188 z" />
  <path
     style="fill:#e4f5e3;fill-rule:nonzero"
     inkscape:connector-curvature="0"
     id="path3059"
     d="m 216.5,108.21384 200.31494,0 0,46.02508 -200.31494,0 z" />
  <path
     style="stroke:#40a13b;stroke-width:1;stroke-linecap:butt;stroke-linejoin:round"
     inkscape:connector-curvature="0"
     id="path3061"
     d="m 216.5,108.21384 200.31494,0 0,46.02508 -200.31494,0 z" />
  <path
     style="fill:#033300;fill-rule:nonzero"
     inkscape:connector-curvature="0"
     id="path3063"
     d="m 226.35937,133.77136 1.6875,-0.14063 q 0.125,1.01563 0.5625,1.67188 0.4375,0.65625 1.35938,1.0625 0.9375,0.40625 2.09375,0.40625 1.03125,0 1.8125,-0.3125 0.79687,-0.3125 1.1875,-0.84375 0.39062,-0.53125 0.39062,-1.15625 0,-0.64063 -0.375,-1.10938 -0.375,-0.48437 -1.23437,-0.8125 -0.54688,-0.21875 -2.42188,-0.65625 -1.875,-0.45312 -2.625,-0.85937 -0.96875,-0.51563 -1.45312,-1.26563 -0.46875,-0.75 -0.46875,-1.6875 0,-1.03125 0.57812,-1.92187 0.59375,-0.90625 1.70313,-1.35938 1.125,-0.46875 2.5,-0.46875 1.51562,0 2.67187,0.48438 1.15625,0.48437 1.76563,1.4375 0.625,0.9375 0.67187,2.14062 l -1.71875,0.125 q -0.14062,-1.28125 -0.95312,-1.9375 -0.79688,-0.67187 -2.35938,-0.67187 -1.625,0 -2.375,0.60937 -0.75,0.59375 -0.75,1.4375 0,0.73438 0.53125,1.20313 0.51563,0.46875 2.70313,0.96875 2.20312,0.5 3.01562,0.875 1.1875,0.54687 1.75,1.39062 0.57813,0.82813 0.57813,1.92188 0,1.09375 -0.625,2.0625 -0.625,0.95312 -1.79688,1.48437 -1.15625,0.53125 -2.60937,0.53125 -1.84375,0 -3.09375,-0.53125 -1.25,-0.54687 -1.96875,-1.625 -0.70313,-1.07812 -0.73438,-2.45312 z m 12.75607,8.17187 -0.17187,-1.5625 q 0.54687,0.14063 0.95312,0.14063 0.54688,0 0.87497,-0.1875 0.34375,-0.1875 0.5625,-0.51563 0.15625,-0.25 0.5,-1.25 0.0469,-0.14062 0.15625,-0.40625 l -3.73434,-9.875 1.79687,0 2.04685,5.71875 q 0.40625,1.07813 0.71875,2.28125 0.28125,-1.15625 0.6875,-2.25 l 2.09375,-5.75 1.67187,0 -3.75,10.03125 q -0.59375,1.625 -0.9375,2.23438 -0.4375,0.82812 -1.01562,1.20312 -0.57813,0.39063 -1.37497,0.39063 -0.48438,0 -1.07813,-0.20313 z m 8.73435,-6.73437 1.65625,-0.26563 q 0.14062,1 0.76562,1.53125 0.64063,0.51563 1.78125,0.51563 1.15625,0 1.70313,-0.46875 0.5625,-0.46875 0.5625,-1.09375 0,-0.5625 -0.48438,-0.89063 -0.34375,-0.21875 -1.70312,-0.5625 -1.84375,-0.46875 -2.5625,-0.79687 -0.70313,-0.34375 -1.07813,-0.9375 -0.35937,-0.60938 -0.35937,-1.32813 0,-0.65625 0.29687,-1.21875 0.3125,-0.5625 0.82813,-0.9375 0.39062,-0.28125 1.0625,-0.48437 0.67187,-0.20313 1.4375,-0.20313 1.17187,0 2.04687,0.34375 0.875,0.32813 1.28125,0.90625 0.42188,0.5625 0.57813,1.51563 l -1.625,0.21875 q -0.10938,-0.75 -0.65625,-1.17188 -0.53125,-0.4375 -1.5,-0.4375 -1.15625,0 -1.64063,0.39063 -0.48437,0.375 -0.48437,0.875 0,0.32812 0.20312,0.59375 0.20313,0.26562 0.64063,0.4375 0.25,0.0937 1.46875,0.4375 1.76562,0.46875 2.46875,0.76562 0.70312,0.29688 1.09375,0.875 0.40625,0.57813 0.40625,1.4375 0,0.82813 -0.48438,1.57813 -0.48437,0.73437 -1.40625,1.14062 -0.92187,0.39063 -2.07812,0.39063 -1.92188,0 -2.9375,-0.79688 -1,-0.79687 -1.28125,-2.35937 z m 13.65625,1.4375 0.23437,1.48437 q -0.70312,0.14063 -1.26562,0.14063 -0.90625,0 -1.40625,-0.28125 -0.5,-0.29688 -0.70313,-0.75 -0.20312,-0.46875 -0.20312,-1.98438 l 0,-5.65625 -1.23438,0 0,-1.3125 1.23438,0 0,-2.4375 1.65625,-1 0,3.4375 1.6875,0 0,1.3125 -1.6875,0 0,5.75 q 0,0.71875 0.0781,0.92188 0.0937,0.20312 0.29688,0.32812 0.20312,0.125 0.57812,0.125 0.26563,0 0.73438,-0.0781 z m 8.2771,-1.67188 1.71875,0.21875 q -0.40625,1.5 -1.51563,2.34375 -1.09375,0.82813 -2.8125,0.82813 -2.15625,0 -3.42187,-1.32813 -1.26563,-1.32812 -1.26563,-3.73437 0,-2.48438 1.26563,-3.85938 1.28125,-1.375 3.32812,-1.375 1.98438,0 3.23438,1.34375 1.25,1.34375 1.25,3.79688 0,0.14062 -0.0156,0.4375 l -7.34375,0 q 0.0937,1.625 0.92188,2.48437 0.82812,0.85938 2.0625,0.85938 0.90625,0 1.54687,-0.46875 0.65625,-0.48438 1.04688,-1.54688 z m -5.48438,-2.70312 5.5,0 q -0.10937,-1.23438 -0.625,-1.85938 -0.79687,-0.96875 -2.07812,-0.96875 -1.14063,0 -1.9375,0.78125 -0.78125,0.76563 -0.85938,2.04688 z m 9.11005,5.875 0,-9.85938 1.5,0 0,1.39063 q 0.45312,-0.71875 1.21875,-1.15625 0.78125,-0.45313 1.76562,-0.45313 1.09375,0 1.79688,0.45313 0.70312,0.45312 0.98437,1.28125 1.17188,-1.73438 3.04688,-1.73438 1.46875,0 2.25,0.8125 0.79687,0.8125 0.79687,2.5 l 0,6.76563 -1.67187,0 0,-6.20313 q 0,-1 -0.15625,-1.4375 -0.15625,-0.45312 -0.59375,-0.71875 -0.42188,-0.26562 -1,-0.26562 -1.03125,0 -1.71875,0.6875 -0.6875,0.6875 -0.6875,2.21875 l 0,5.71875 -1.67188,0 0,-6.40625 q 0,-1.10938 -0.40625,-1.65625 -0.40625,-0.5625 -1.34375,-0.5625 -0.70312,0 -1.3125,0.375 -0.59375,0.35937 -0.85937,1.07812 -0.26563,0.71875 -0.26563,2.0625 l 0,5.10938 -1.67187,0 z m 20.86474,0 0,-13.59375 5.10938,0 q 1.54687,0 2.48437,0.40625 0.95313,0.40625 1.48438,1.26562 0.53125,0.85938 0.53125,1.79688 0,0.875 -0.46875,1.65625 -0.46875,0.76562 -1.4375,1.23437 1.23437,0.35938 1.89062,1.23438 0.67188,0.875 0.67188,2.0625 0,0.95312 -0.40625,1.78125 -0.39063,0.8125 -0.98438,1.26562 -0.59375,0.4375 -1.5,0.67188 -0.89062,0.21875 -2.1875,0.21875 l -5.1875,0 z m 1.79688,-7.89063 2.9375,0 q 1.20312,0 1.71875,-0.15625 0.6875,-0.20312 1.03125,-0.67187 0.35937,-0.46875 0.35937,-1.1875 0,-0.67188 -0.32812,-1.1875 -0.32813,-0.51563 -0.9375,-0.70313 -0.59375,-0.20312 -2.0625,-0.20312 l -2.71875,0 0,4.10937 z m 0,6.28125 3.39062,0 q 0.875,0 1.21875,-0.0625 0.625,-0.10937 1.04688,-0.35937 0.42187,-0.26563 0.6875,-0.76563 0.26562,-0.5 0.26562,-1.14062 0,-0.76563 -0.39062,-1.32813 -0.39063,-0.5625 -1.07813,-0.78125 -0.6875,-0.23437 -1.98437,-0.23437 l -3.15625,0 0,4.67187 z" />
  <path
     style="fill:#8ad386;fill-rule:nonzero"
     inkscape:connector-curvature="0"
     id="path3065"
     d="m 334.5132,114.11408 78.74017,0 0,35.4007 -78.74017,0 z" />
  <path
     style="stroke:#40a13b;stroke-width:1;stroke-linecap:butt;stroke-linejoin:round;stroke-dasharray:1, 3"
     inkscape:connector-curvature="0"
     id="path3067"
     d="m 334.5132,114.11408 78.74017,0 0,35.4007 -78.74017,0 z" />
  <path
     style="fill:#033300;fill-rule:nonzero"
     inkscape:connector-curvature="0"
     id="path3069"
     d="m 358.091,133.96881 1.79687,0.45312 q -0.5625,2.21875 -2.03125,3.39063 -1.46875,1.15625 -3.59375,1.15625 -2.20312,0 -3.57812,-0.89063 -1.375,-0.90625 -2.09375,-2.59375 -0.71875,-1.70312 -0.71875,-3.65625 0,-2.125 0.79687,-3.70312 0.8125,-1.57813 2.3125,-2.39063 1.5,-0.82812 3.29688,-0.82812 2.04687,0 3.4375,1.04687 1.39062,1.03125 1.9375,2.90625 l -1.76563,0.42188 q -0.46875,-1.48438 -1.375,-2.15625 -0.90625,-0.6875 -2.26562,-0.6875 -1.5625,0 -2.625,0.75 -1.04688,0.75 -1.48438,2.03125 -0.42187,1.26562 -0.42187,2.60937 0,1.73438 0.5,3.03125 0.51562,1.28125 1.57812,1.92188 1.07813,0.64062 2.3125,0.64062 1.51563,0 2.5625,-0.85937 1.04688,-0.875 1.42188,-2.59375 z m 2.92609,-0.15625 q 0,-2.73438 1.53125,-4.0625 1.26562,-1.09375 3.09375,-1.09375 2.03125,0 3.3125,1.34375 1.29687,1.32812 1.29687,3.67187 0,1.90625 -0.57812,3 -0.5625,1.07813 -1.65625,1.6875 -1.07813,0.59375 -2.375,0.59375 -2.0625,0 -3.34375,-1.32812 -1.28125,-1.32813 -1.28125,-3.8125 z m 1.71875,0 q 0,1.89062 0.82812,2.82812 0.82813,0.9375 2.07813,0.9375 1.25,0 2.0625,-0.9375 0.82812,-0.95312 0.82812,-2.89062 0,-1.82813 -0.82812,-2.76563 -0.82813,-0.9375 -2.0625,-0.9375 -1.25,0 -2.07813,0.9375 -0.82812,0.9375 -0.82812,2.82813 z m 9.28198,4.92187 0,-9.85937 1.5,0 0,1.40625 q 1.09375,-1.625 3.14062,-1.625 0.89063,0 1.64063,0.32812 0.75,0.3125 1.10937,0.84375 0.375,0.51563 0.53125,1.21875 0.0937,0.46875 0.0937,1.625 l 0,6.0625 -1.67187,0 0,-6 q 0,-1.01562 -0.20313,-1.51562 -0.1875,-0.51563 -0.6875,-0.8125 -0.5,-0.29688 -1.17187,-0.29688 -1.0625,0 -1.84375,0.67188 -0.76563,0.67187 -0.76563,2.57812 l 0,5.375 -1.67187,0 z m 10.78198,0 0,-8.54687 -1.48437,0 0,-1.3125 1.48437,0 0,-1.04688 q 0,-0.98437 0.17188,-1.46875 0.23437,-0.65625 0.84375,-1.04687 0.60937,-0.40625 1.70312,-0.40625 0.70313,0 1.5625,0.15625 l -0.25,1.46875 q -0.51562,-0.0937 -0.98437,-0.0937 -0.76563,0 -1.07813,0.32812 -0.3125,0.3125 -0.3125,1.20313 l 0,0.90625 1.92188,0 0,1.3125 -1.92188,0 0,8.54687 -1.65625,0 z m 4.79266,-11.6875 0,-1.90625 1.67188,0 0,1.90625 -1.67188,0 z m 0,11.6875 0,-9.85937 1.67188,0 0,9.85937 -1.67188,0 z m 3.83234,0.8125 1.60938,0.25 q 0.10937,0.75 0.57812,1.09375 0.60938,0.45313 1.6875,0.45313 1.17188,0 1.79688,-0.46875 0.625,-0.45313 0.85937,-1.28125 0.125,-0.51563 0.10938,-2.15625 -1.09375,1.29687 -2.71875,1.29687 -2.03125,0 -3.15625,-1.46875 -1.10938,-1.46875 -1.10938,-3.51562 0,-1.40625 0.51563,-2.59375 0.51562,-1.20313 1.48437,-1.84375 0.96875,-0.65625 2.26563,-0.65625 1.75,0 2.875,1.40625 l 0,-1.1875 1.54687,0 0,8.51562 q 0,2.3125 -0.46875,3.26563 -0.46875,0.96875 -1.48437,1.51562 -1.01563,0.5625 -2.5,0.5625 -1.76563,0 -2.85938,-0.79687 -1.07812,-0.79688 -1.03125,-2.39063 z m 1.375,-5.92187 q 0,1.95312 0.76563,2.84375 0.78125,0.89062 1.9375,0.89062 1.14062,0 1.92187,-0.89062 0.78125,-0.89063 0.78125,-2.78125 0,-1.8125 -0.8125,-2.71875 -0.79687,-0.92188 -1.92187,-0.92188 -1.10938,0 -1.89063,0.90625 -0.78125,0.89063 -0.78125,2.67188 z" />
  <path
     style="fill:#e4f5e3;fill-rule:nonzero"
     inkscape:connector-curvature="0"
     id="path3071"
     d="m 0.5,0.5 416.4724,0 0,46.01575 -416.4724,0 z" />
  <path
     style="stroke:#40a13b;stroke-width:1;stroke-linecap:butt;stroke-linejoin:round"
     inkscape:connector-curvature="0"
     id="path3073"
     d="m 0.5,0.5 416.4724,0 0,46.01575 -416.4724,0 z" />
  <path
     style="fill:#033300;fill-rule:nonzero"
     inkscape:connector-curvature="0"
     id="path3075"
     d="m 124.9557,30.42786 -3.60938,-13.59375 1.84375,0 2.0625,8.90625 q 0.34375,1.40625 0.57813,2.78125 0.51562,-2.17188 0.60937,-2.51563 l 2.59375,-9.17187 2.17188,0 1.95312,6.875 q 0.73438,2.5625 1.04688,4.8125 0.26562,-1.28125 0.6875,-2.95313 l 2.125,-8.73437 1.8125,0 -3.73438,13.59375 -1.73437,0 -2.85938,-10.35938 q -0.35937,-1.29687 -0.42187,-1.59375 -0.21875,0.9375 -0.40625,1.59375 l -2.89063,10.35938 -1.82812,0 z m 14.38989,-4.92188 q 0,-2.73437 1.53125,-4.0625 1.26563,-1.09375 3.09375,-1.09375 2.03125,0 3.3125,1.34375 1.29688,1.32813 1.29688,3.67188 0,1.90625 -0.57813,3 -0.5625,1.07812 -1.65625,1.6875 -1.07812,0.59375 -2.375,0.59375 -2.0625,0 -3.34375,-1.32813 -1.28125,-1.32812 -1.28125,-3.8125 z m 1.71875,0 q 0,1.89063 0.82813,2.82813 0.82812,0.9375 2.07812,0.9375 1.25,0 2.0625,-0.9375 0.82813,-0.95313 0.82813,-2.89063 0,-1.82812 -0.82813,-2.76562 -0.82812,-0.9375 -2.0625,-0.9375 -1.25,0 -2.07812,0.9375 -0.82813,0.9375 -0.82813,2.82812 z m 9.26636,4.92188 0,-9.85938 1.5,0 0,1.5 q 0.57812,-1.04687 1.0625,-1.375 0.48437,-0.34375 1.07812,-0.34375 0.84375,0 1.71875,0.54688 l -0.57812,1.54687 q -0.60938,-0.35937 -1.23438,-0.35937 -0.54687,0 -0.98437,0.32812 -0.42188,0.32813 -0.60938,0.90625 -0.28125,0.89063 -0.28125,1.95313 l 0,5.15625 -1.67187,0 z m 6.24393,0 0,-13.59375 1.67187,0 0,7.75 3.95313,-4.01563 2.15625,0 -3.76563,3.65625 4.14063,6.20313 -2.0625,0 -3.25,-5.03125 -1.17188,1.125 0,3.90625 -1.67187,0 z m 9.28125,0 0,-13.59375 1.67187,0 0,13.59375 -1.67187,0 z m 3.55105,-4.92188 q 0,-2.73437 1.53125,-4.0625 1.26563,-1.09375 3.09375,-1.09375 2.03125,0 3.3125,1.34375 1.29688,1.32813 1.29688,3.67188 0,1.90625 -0.57813,3 -0.5625,1.07812 -1.65625,1.6875 -1.07812,0.59375 -2.375,0.59375 -2.0625,0 -3.34375,-1.32813 -1.28125,-1.32812 -1.28125,-3.8125 z m 1.71875,0 q 0,1.89063 0.82813,2.82813 0.82812,0.9375 2.07812,0.9375 1.25,0 2.0625,-0.9375 0.82813,-0.95313 0.82813,-2.89063 0,-1.82812 -0.82813,-2.76562 -0.82812,-0.9375 -2.0625,-0.9375 -1.25,0 -2.07812,0.9375 -0.82813,0.9375 -0.82813,2.82812 z m 15.71948,3.70313 q -0.9375,0.79687 -1.79687,1.125 -0.85938,0.3125 -1.84375,0.3125 -1.60938,0 -2.48438,-0.78125 -0.875,-0.79688 -0.875,-2.03125 0,-0.73438 0.32813,-1.32813 0.32812,-0.59375 0.85937,-0.95312 0.53125,-0.35938 1.20313,-0.54688 0.5,-0.14062 1.48437,-0.25 2.03125,-0.25 2.98438,-0.57812 0,-0.34375 0,-0.4375 0,-1.01563 -0.46875,-1.4375 -0.64063,-0.5625 -1.90625,-0.5625 -1.17188,0 -1.73438,0.40625 -0.5625,0.40625 -0.82812,1.46875 l -1.64063,-0.23438 q 0.23438,-1.04687 0.73438,-1.6875 0.51562,-0.64062 1.46875,-0.98437 0.96875,-0.35938 2.25,-0.35938 1.26562,0 2.04687,0.29688 0.78125,0.29687 1.15625,0.75 0.375,0.45312 0.51563,1.14062 0.0937,0.42188 0.0937,1.53125 l 0,2.23438 q 0,2.32812 0.0937,2.95312 0.10937,0.60938 0.4375,1.17188 l -1.75,0 q -0.26563,-0.51563 -0.32813,-1.21875 z m -0.14062,-3.71875 q -0.90625,0.35937 -2.73438,0.625 -1.03125,0.14062 -1.45312,0.32812 -0.42188,0.1875 -0.65625,0.54688 -0.23438,0.35937 -0.23438,0.79687 0,0.67188 0.5,1.125 0.51563,0.4375 1.48438,0.4375 0.96875,0 1.71875,-0.42187 0.75,-0.4375 1.10937,-1.15625 0.26563,-0.57813 0.26563,-1.67188 l 0,-0.60937 z m 10.46945,4.9375 0,-1.25 q -0.9375,1.46875 -2.75,1.46875 -1.17187,0 -2.17187,-0.64063 -0.98438,-0.65625 -1.53125,-1.8125 -0.53125,-1.17187 -0.53125,-2.6875 0,-1.46875 0.48437,-2.67187 0.5,-1.20313 1.46875,-1.84375 0.98438,-0.64063 2.20313,-0.64063 0.89062,0 1.57812,0.375 0.70313,0.375 1.14063,0.98438 l 0,-4.875 1.65625,0 0,13.59375 -1.54688,0 z m -5.28125,-4.92188 q 0,1.89063 0.79688,2.82813 0.8125,0.9375 1.89062,0.9375 1.09375,0 1.85938,-0.89063 0.76562,-0.89062 0.76562,-2.73437 0,-2.01563 -0.78125,-2.95313 -0.78125,-0.95312 -1.92187,-0.95312 -1.10938,0 -1.85938,0.90625 -0.75,0.90625 -0.75,2.85937 z m 13.1684,4.92188 5.23437,-13.59375 1.9375,0 5.5625,13.59375 -2.04687,0 -1.59375,-4.125 -5.6875,0 -1.48438,4.125 -1.92187,0 z m 3.92187,-5.57813 4.60938,0 -1.40625,-3.78125 q -0.65625,-1.70312 -0.96875,-2.8125 -0.26563,1.3125 -0.73438,2.59375 l -1.5,4 z m 9.80295,9.35938 0,-13.64063 1.53125,0 0,1.28125 q 0.53125,-0.75 1.20313,-1.125 0.6875,-0.375 1.64062,-0.375 1.26563,0 2.23438,0.65625 0.96875,0.64063 1.45312,1.82813 0.5,1.1875 0.5,2.59375 0,1.51562 -0.54687,2.73437 -0.54688,1.20313 -1.57813,1.84375 -1.03125,0.64063 -2.17187,0.64063 -0.84375,0 -1.51563,-0.34375 -0.65625,-0.35938 -1.07812,-0.89063 l 0,4.79688 -1.67188,0 z m 1.51563,-8.65625 q 0,1.90625 0.76562,2.8125 0.78125,0.90625 1.875,0.90625 1.10938,0 1.89063,-0.9375 0.79687,-0.9375 0.79687,-2.92188 0,-1.875 -0.78125,-2.8125 -0.76562,-0.9375 -1.84375,-0.9375 -1.0625,0 -1.89062,1 -0.8125,1 -0.8125,2.89063 z m 8.8601,8.65625 0,-13.64063 1.53125,0 0,1.28125 q 0.53125,-0.75 1.20313,-1.125 0.6875,-0.375 1.64062,-0.375 1.26563,0 2.23438,0.65625 0.96875,0.64063 1.45312,1.82813 0.5,1.1875 0.5,2.59375 0,1.51562 -0.54687,2.73437 -0.54688,1.20313 -1.57813,1.84375 -1.03125,0.64063 -2.17187,0.64063 -0.84375,0 -1.51563,-0.34375 -0.65625,-0.35938 -1.07812,-0.89063 l 0,4.79688 -1.67188,0 z m 1.51563,-8.65625 q 0,1.90625 0.76562,2.8125 0.78125,0.90625 1.875,0.90625 1.10938,0 1.89063,-0.9375 0.79687,-0.9375 0.79687,-2.92188 0,-1.875 -0.78125,-2.8125 -0.76562,-0.9375 -1.84375,-0.9375 -1.0625,0 -1.89062,1 -0.8125,1 -0.8125,2.89063 z m 8.82882,4.875 0,-13.59375 1.67188,0 0,13.59375 -1.67188,0 z m 4.19172,-11.6875 0,-1.90625 1.67187,0 0,1.90625 -1.67187,0 z m 0,11.6875 0,-9.85938 1.67187,0 0,9.85938 -1.67187,0 z m 10.56671,-3.60938 1.64062,0.21875 q -0.26562,1.6875 -1.375,2.65625 -1.10937,0.95313 -2.73437,0.95313 -2.01563,0 -3.25,-1.3125 -1.21875,-1.32813 -1.21875,-3.79688 0,-1.59375 0.51562,-2.78125 0.53125,-1.20312 1.60938,-1.79687 1.09375,-0.60938 2.35937,-0.60938 1.60938,0 2.625,0.8125 1.01563,0.8125 1.3125,2.3125 l -1.625,0.25 q -0.23437,-1 -0.82812,-1.5 -0.59375,-0.5 -1.42188,-0.5 -1.26562,0 -2.0625,0.90625 -0.78125,0.90625 -0.78125,2.85938 0,1.98437 0.76563,2.89062 0.76562,0.89063 1.98437,0.89063 0.98438,0 1.64063,-0.59375 0.65625,-0.60938 0.84375,-1.85938 z m 9.32812,2.39063 q -0.9375,0.79687 -1.79687,1.125 -0.85938,0.3125 -1.84375,0.3125 -1.60938,0 -2.48438,-0.78125 -0.875,-0.79688 -0.875,-2.03125 0,-0.73438 0.32813,-1.32813 0.32812,-0.59375 0.85937,-0.95312 0.53125,-0.35938 1.20313,-0.54688 0.5,-0.14062 1.48437,-0.25 2.03125,-0.25 2.98438,-0.57812 0,-0.34375 0,-0.4375 0,-1.01563 -0.46875,-1.4375 -0.64063,-0.5625 -1.90625,-0.5625 -1.17188,0 -1.73438,0.40625 -0.5625,0.40625 -0.82812,1.46875 l -1.64063,-0.23438 q 0.23438,-1.04687 0.73438,-1.6875 0.51562,-0.64062 1.46875,-0.98437 0.96875,-0.35938 2.25,-0.35938 1.26562,0 2.04687,0.29688 0.78125,0.29687 1.15625,0.75 0.375,0.45312 0.51563,1.14062 0.0937,0.42188 0.0937,1.53125 l 0,2.23438 q 0,2.32812 0.0937,2.95312 0.10937,0.60938 0.4375,1.17188 l -1.75,0 q -0.26563,-0.51563 -0.32813,-1.21875 z m -0.14062,-3.71875 q -0.90625,0.35937 -2.73438,0.625 -1.03125,0.14062 -1.45312,0.32812 -0.42188,0.1875 -0.65625,0.54688 -0.23438,0.35937 -0.23438,0.79687 0,0.67188 0.5,1.125 0.51563,0.4375 1.48438,0.4375 0.96875,0 1.71875,-0.42187 0.75,-0.4375 1.10937,-1.15625 0.26563,-0.57813 0.26563,-1.67188 l 0,-0.60937 z m 7.73504,3.4375 0.23438,1.48437 q -0.70313,0.14063 -1.26563,0.14063 -0.90625,0 -1.40625,-0.28125 -0.5,-0.29688 -0.70312,-0.75 -0.20313,-0.46875 -0.20313,-1.98438 l 0,-5.65625 -1.23437,0 0,-1.3125 1.23437,0 0,-2.4375 1.65625,-1 0,3.4375 1.6875,0 0,1.3125 -1.6875,0 0,5.75 q 0,0.71875 0.0781,0.92188 0.0937,0.20312 0.29687,0.32812 0.20313,0.125 0.57813,0.125 0.26562,0 0.73437,-0.0781 z m 1.54273,-10.1875 0,-1.90625 1.67187,0 0,1.90625 -1.67187,0 z m 0,11.6875 0,-9.85938 1.67187,0 0,9.85938 -1.67187,0 z m 3.50415,-4.92188 q 0,-2.73437 1.53125,-4.0625 1.26562,-1.09375 3.09375,-1.09375 2.03125,0 3.3125,1.34375 1.29687,1.32813 1.29687,3.67188 0,1.90625 -0.57812,3 -0.5625,1.07812 -1.65625,1.6875 -1.07813,0.59375 -2.375,0.59375 -2.0625,0 -3.34375,-1.32813 -1.28125,-1.32812 -1.28125,-3.8125 z m 1.71875,0 q 0,1.89063 0.82812,2.82813 0.82813,0.9375 2.07813,0.9375 1.25,0 2.0625,-0.9375 0.82812,-0.95313 0.82812,-2.89063 0,-1.82812 -0.82812,-2.76562 -0.82813,-0.9375 -2.0625,-0.9375 -1.25,0 -2.07813,0.9375 -0.82812,0.9375 -0.82812,2.82812 z m 9.28198,4.92188 0,-9.85938 1.5,0 0,1.40625 q 1.09375,-1.625 3.14063,-1.625 0.89062,0 1.64062,0.32813 0.75,0.3125 1.10938,0.84375 0.375,0.51562 0.53125,1.21875 0.0937,0.46875 0.0937,1.625 l 0,6.0625 -1.67188,0 0,-6 q 0,-1.01563 -0.20312,-1.51563 -0.1875,-0.51562 -0.6875,-0.8125 -0.5,-0.29687 -1.17188,-0.29687 -1.0625,0 -1.84375,0.67187 -0.76562,0.67188 -0.76562,2.57813 l 0,5.375 -1.67188,0 z" />
  <path
     style="fill:#8ad386;fill-rule:nonzero"
     inkscape:connector-curvature="0"
     id="path3077"
     d="m 333.77484,5.80711 78.74017,0 0,35.40155 -78.74017,0 z" />
  <path
     style="stroke:#40a13b;stroke-width:1;stroke-linecap:butt;stroke-linejoin:round;stroke-dasharray:1, 3"
     inkscape:connector-curvature="0"
     id="path3079"
     d="m 333.77484,5.80711 78.74017,0 0,35.40155 -78.74017,0 z" />
  <path
     style="fill:#033300;fill-rule:nonzero"
     inkscape:connector-curvature="0"
     id="path3081"
     d="m 347.1394,30.42789 0,-13.59375 5.125,0 q 1.35937,0 2.07812,0.125 1,0.17188 1.67188,0.64063 0.67187,0.46875 1.07812,1.3125 0.42188,0.84375 0.42188,1.84375 0,1.73437 -1.10938,2.9375 -1.09375,1.20312 -3.98437,1.20312 l -3.48438,0 0,5.53125 -1.79687,0 z m 1.79687,-7.14062 3.51563,0 q 1.75,0 2.46875,-0.64063 0.73437,-0.65625 0.73437,-1.82812 0,-0.85938 -0.4375,-1.46875 -0.42187,-0.60938 -1.125,-0.79688 -0.45312,-0.125 -1.67187,-0.125 l -3.48438,0 0,4.85938 z m 16.86548,5.92187 q -0.9375,0.79688 -1.79687,1.125 -0.85938,0.3125 -1.84375,0.3125 -1.60938,0 -2.48438,-0.78125 -0.875,-0.79687 -0.875,-2.03125 0,-0.73437 0.32813,-1.32812 0.32812,-0.59375 0.85937,-0.95313 0.53125,-0.35937 1.20313,-0.54687 0.5,-0.14063 1.48437,-0.25 2.03125,-0.25 2.98438,-0.57813 0,-0.34375 0,-0.4375 0,-1.01562 -0.46875,-1.4375 -0.64063,-0.5625 -1.90625,-0.5625 -1.17188,0 -1.73438,0.40625 -0.5625,0.40625 -0.82812,1.46875 L 359.083,23.38102 q 0.23438,-1.04688 0.73438,-1.6875 0.51562,-0.64063 1.46875,-0.98438 0.96875,-0.35937 2.25,-0.35937 1.26562,0 2.04687,0.29687 0.78125,0.29688 1.15625,0.75 0.375,0.45313 0.51563,1.14063 0.0937,0.42187 0.0937,1.53125 l 0,2.23437 q 0,2.32813 0.0937,2.95313 0.10937,0.60937 0.4375,1.17187 l -1.75,0 q -0.26563,-0.51562 -0.32813,-1.21875 z m -0.14062,-3.71875 q -0.90625,0.35938 -2.73438,0.625 -1.03125,0.14063 -1.45312,0.32813 -0.42188,0.1875 -0.65625,0.54687 -0.23438,0.35938 -0.23438,0.79688 0,0.67187 0.5,1.125 0.51563,0.4375 1.48438,0.4375 0.96875,0 1.71875,-0.42188 0.75,-0.4375 1.10937,-1.15625 0.26563,-0.57812 0.26563,-1.67187 l 0,-0.60938 z m 4.06323,4.9375 0,-9.85937 1.5,0 0,1.5 q 0.57813,-1.04688 1.0625,-1.375 0.48438,-0.34375 1.07813,-0.34375 0.84375,0 1.71875,0.54687 l -0.57813,1.54688 q -0.60937,-0.35938 -1.23437,-0.35938 -0.54688,0 -0.98438,0.32813 -0.42187,0.32812 -0.60937,0.90625 -0.28125,0.89062 -0.28125,1.95312 l 0,5.15625 -1.67188,0 z m 12.66577,-1.21875 q -0.9375,0.79688 -1.79687,1.125 -0.85938,0.3125 -1.84375,0.3125 -1.60938,0 -2.48438,-0.78125 -0.875,-0.79687 -0.875,-2.03125 0,-0.73437 0.32813,-1.32812 0.32812,-0.59375 0.85937,-0.95313 0.53125,-0.35937 1.20313,-0.54687 0.5,-0.14063 1.48437,-0.25 2.03125,-0.25 2.98438,-0.57813 0,-0.34375 0,-0.4375 0,-1.01562 -0.46875,-1.4375 -0.64063,-0.5625 -1.90625,-0.5625 -1.17188,0 -1.73438,0.40625 -0.5625,0.40625 -0.82812,1.46875 l -1.64063,-0.23437 q 0.23438,-1.04688 0.73438,-1.6875 0.51562,-0.64063 1.46875,-0.98438 0.96875,-0.35937 2.25,-0.35937 1.26562,0 2.04687,0.29687 0.78125,0.29688 1.15625,0.75 0.375,0.45313 0.51563,1.14063 0.0937,0.42187 0.0937,1.53125 l 0,2.23437 q 0,2.32813 0.0937,2.95313 0.10937,0.60937 0.4375,1.17187 l -1.75,0 q -0.26563,-0.51562 -0.32813,-1.21875 z m -0.14062,-3.71875 q -0.90625,0.35938 -2.73438,0.625 -1.03125,0.14063 -1.45312,0.32813 -0.42188,0.1875 -0.65625,0.54687 -0.23438,0.35938 -0.23438,0.79688 0,0.67187 0.5,1.125 0.51563,0.4375 1.48438,0.4375 0.96875,0 1.71875,-0.42188 0.75,-0.4375 1.10937,-1.15625 0.26563,-0.57812 0.26563,-1.67187 l 0,-0.60938 z m 4.07886,4.9375 0,-9.85937 1.5,0 0,1.39062 q 0.45312,-0.71875 1.21875,-1.15625 0.78125,-0.45312 1.76562,-0.45312 1.09375,0 1.79688,0.45312 0.70312,0.45313 0.98437,1.28125 1.17188,-1.73437 3.04688,-1.73437 1.46875,0 2.25,0.8125 0.79687,0.8125 0.79687,2.5 l 0,6.76562 -1.67187,0 0,-6.20312 q 0,-1 -0.15625,-1.4375 -0.15625,-0.45313 -0.59375,-0.71875 -0.42188,-0.26563 -1,-0.26563 -1.03125,0 -1.71875,0.6875 -0.6875,0.6875 -0.6875,2.21875 l 0,5.71875 -1.67188,0 0,-6.40625 q 0,-1.10937 -0.40625,-1.65625 -0.40625,-0.5625 -1.34375,-0.5625 -0.70312,0 -1.3125,0.375 -0.59375,0.35938 -0.85937,1.07813 -0.26563,0.71875 -0.26563,2.0625 l 0,5.10937 -1.67187,0 z" />
  <path
     style="fill:#e4f5e3;fill-rule:nonzero"
     inkscape:connector-curvature="0"
     id="path3083"
     d="m 0.5,163.99821 416.4724,0 0,46.01575 -416.4724,0 z" />
  <path
     style="stroke:#40a13b;stroke-width:1;stroke-linecap:butt;stroke-linejoin:round"
     inkscape:connector-curvature="0"
     id="path3085"
     d="m 0.5,163.99821 416.4724,0 0,46.01575 -416.4724,0 z" />
  <path
     style="fill:#033300;fill-rule:nonzero"
     inkscape:connector-curvature="0"
     id="path3087"
     d="m 11.01562,193.92606 0,-13.59375 1.8125,0 0,5.57812 7.0625,0 0,-5.57812 1.79688,0 0,13.59375 -1.79688,0 0,-6.40625 -7.0625,0 0,6.40625 -1.8125,0 z m 12.58231,-4.92188 q 0,-2.73437 1.53125,-4.0625 1.26562,-1.09375 3.09375,-1.09375 2.03125,0 3.3125,1.34375 1.29687,1.32813 1.29687,3.67188 0,1.90625 -0.57812,3 -0.5625,1.07812 -1.65625,1.6875 -1.07813,0.59375 -2.375,0.59375 -2.0625,0 -3.34375,-1.32813 -1.28125,-1.32812 -1.28125,-3.8125 z m 1.71875,0 q 0,1.89063 0.82812,2.82813 0.82813,0.9375 2.07813,0.9375 1.25,0 2.0625,-0.9375 0.82812,-0.95313 0.82812,-2.89063 0,-1.82812 -0.82812,-2.76562 -0.82813,-0.9375 -2.0625,-0.9375 -1.25,0 -2.07813,0.9375 -0.82812,0.9375 -0.82812,2.82812 z m 8.6101,1.98438 1.65625,-0.26563 q 0.14063,1 0.76563,1.53125 0.64062,0.51563 1.78125,0.51563 1.15625,0 1.70312,-0.46875 0.5625,-0.46875 0.5625,-1.09375 0,-0.5625 -0.48437,-0.89063 -0.34375,-0.21875 -1.70313,-0.5625 -1.84375,-0.46875 -2.5625,-0.79687 -0.70312,-0.34375 -1.07812,-0.9375 -0.35938,-0.60938 -0.35938,-1.32813 0,-0.65625 0.29688,-1.21875 0.3125,-0.5625 0.82812,-0.9375 0.39063,-0.28125 1.0625,-0.48437 0.67188,-0.20313 1.4375,-0.20313 1.17188,0 2.04688,0.34375 0.875,0.32813 1.28125,0.90625 0.42187,0.5625 0.57812,1.51563 l -1.625,0.21875 q -0.10937,-0.75 -0.65625,-1.17188 -0.53125,-0.4375 -1.5,-0.4375 -1.15625,0 -1.64062,0.39063 -0.48438,0.375 -0.48438,0.875 0,0.32812 0.20313,0.59375 0.20312,0.26562 0.64062,0.4375 0.25,0.0937 1.46875,0.4375 1.76563,0.46875 2.46875,0.76562 0.70313,0.29688 1.09375,0.875 0.40625,0.57813 0.40625,1.4375 0,0.82813 -0.48437,1.57813 -0.48438,0.73437 -1.40625,1.14062 -0.92188,0.39063 -2.07813,0.39063 -1.92187,0 -2.9375,-0.79688 -1,-0.79687 -1.28125,-2.35937 z m 13.65625,1.4375 0.23438,1.48437 q -0.70313,0.14063 -1.26563,0.14063 -0.90625,0 -1.40625,-0.28125 -0.5,-0.29688 -0.70312,-0.75 -0.20313,-0.46875 -0.20313,-1.98438 l 0,-5.65625 -1.23437,0 0,-1.3125 1.23437,0 0,-2.4375 1.65625,-1 0,3.4375 1.6875,0 0,1.3125 -1.6875,0 0,5.75 q 0,0.71875 0.0781,0.92188 0.0937,0.20312 0.29687,0.32812 0.20313,0.125 0.57813,0.125 0.26562,0 0.73437,-0.0781 z m 9.89786,5.5 q -1.375,-1.75 -2.32812,-4.07813 -0.95313,-2.34375 -0.95313,-4.84375 0,-2.21875 0.70313,-4.23437 0.84375,-2.34375 2.57812,-4.67188 l 1.20313,0 q -1.125,1.92188 -1.48438,2.75 -0.5625,1.28125 -0.89062,2.67188 -0.40625,1.73437 -0.40625,3.48437 0,4.46875 2.78125,8.92188 l -1.20313,0 z m 12.94705,-8.76563 1.79688,0.45313 q -0.5625,2.21875 -2.03125,3.39062 -1.46875,1.15625 -3.59375,1.15625 -2.20313,0 -3.57813,-0.89062 -1.375,-0.90625 -2.09375,-2.59375 -0.71875,-1.70313 -0.71875,-3.65625 0,-2.125 0.79688,-3.70313 0.8125,-1.57812 2.3125,-2.39062 1.5,-0.82813 3.29687,-0.82813 2.04688,0 3.4375,1.04688 1.39063,1.03125 1.9375,2.90625 l -1.76562,0.42187 q -0.46875,-1.48437 -1.375,-2.15625 -0.90625,-0.6875 -2.26563,-0.6875 -1.5625,0 -2.625,0.75 -1.04687,0.75 -1.48437,2.03125 -0.42188,1.26563 -0.42188,2.60938 0,1.73437 0.5,3.03125 0.51563,1.28125 1.57813,1.92187 1.07812,0.64063 2.3125,0.64063 1.51562,0 2.5625,-0.85938 1.04687,-0.875 1.42187,-2.59375 z m 3.51981,4.76563 0,-13.59375 1.67187,0 0,13.59375 -1.67187,0 z m 10.62921,0 0,-1.45313 q -1.14062,1.67188 -3.125,1.67188 -0.85937,0 -1.625,-0.32813 -0.75,-0.34375 -1.125,-0.84375 -0.35937,-0.5 -0.51562,-1.23437 -0.0937,-0.5 -0.0937,-1.5625 l 0,-6.10938 1.67187,0 0,5.46875 q 0,1.3125 0.0937,1.76563 0.15625,0.65625 0.67188,1.03125 0.51562,0.375 1.26562,0.375 0.75,0 1.40625,-0.375 0.65625,-0.39063 0.92188,-1.04688 0.28125,-0.67187 0.28125,-1.9375 l 0,-5.28125 1.67187,0 0,9.85938 -1.5,0 z m 3.2507,-2.9375 1.65625,-0.26563 q 0.14063,1 0.76563,1.53125 0.64062,0.51563 1.78125,0.51563 1.15625,0 1.70312,-0.46875 0.5625,-0.46875 0.5625,-1.09375 0,-0.5625 -0.48437,-0.89063 -0.34375,-0.21875 -1.70313,-0.5625 -1.84375,-0.46875 -2.5625,-0.79687 -0.70312,-0.34375 -1.07812,-0.9375 -0.35938,-0.60938 -0.35938,-1.32813 0,-0.65625 0.29688,-1.21875 0.3125,-0.5625 0.82812,-0.9375 0.39063,-0.28125 1.0625,-0.48437 0.67188,-0.20313 1.4375,-0.20313 1.17188,0 2.04688,0.34375 0.875,0.32813 1.28125,0.90625 0.42187,0.5625 0.57812,1.51563 l -1.625,0.21875 q -0.10937,-0.75 -0.65625,-1.17188 -0.53125,-0.4375 -1.5,-0.4375 -1.15625,0 -1.64062,0.39063 -0.48438,0.375 -0.48438,0.875 0,0.32812 0.20313,0.59375 0.20312,0.26562 0.64062,0.4375 0.25,0.0937 1.46875,0.4375 1.76563,0.46875 2.46875,0.76562 0.70313,0.29688 1.09375,0.875 0.40625,0.57813 0.40625,1.4375 0,0.82813 -0.48437,1.57813 -0.48438,0.73437 -1.40625,1.14062 -0.92188,0.39063 -2.07813,0.39063 -1.92187,0 -2.9375,-0.79688 -1,-0.79687 -1.28125,-2.35937 z m 13.65625,1.4375 0.23438,1.48437 q -0.70313,0.14063 -1.26563,0.14063 -0.90625,0 -1.40625,-0.28125 -0.5,-0.29688 -0.70312,-0.75 -0.20313,-0.46875 -0.20313,-1.98438 l 0,-5.65625 -1.23437,0 0,-1.3125 1.23437,0 0,-2.4375 1.65625,-1 0,3.4375 1.6875,0 0,1.3125 -1.6875,0 0,5.75 q 0,0.71875 0.0781,0.92188 0.0937,0.20312 0.29687,0.32812 0.20313,0.125 0.57813,0.125 0.26562,0 0.73437,-0.0781 z m 8.27707,-1.67188 1.71875,0.21875 q -0.40625,1.5 -1.51562,2.34375 -1.09375,0.82813 -2.8125,0.82813 -2.15625,0 -3.42188,-1.32813 -1.26562,-1.32812 -1.26562,-3.73437 0,-2.48438 1.26562,-3.85938 1.28125,-1.375 3.32813,-1.375 1.98437,0 3.23437,1.34375 1.25,1.34375 1.25,3.79688 0,0.14062 -0.0156,0.4375 l -7.34375,0 q 0.0937,1.625 0.92187,2.48437 0.82813,0.85938 2.0625,0.85938 0.90625,0 1.54688,-0.46875 0.65625,-0.48438 1.04687,-1.54688 z m -5.48437,-2.70312 5.5,0 q -0.10938,-1.23438 -0.625,-1.85938 -0.79688,-0.96875 -2.07813,-0.96875 -1.14062,0 -1.9375,0.78125 -0.78125,0.76563 -0.85937,2.04688 z m 9.09445,5.875 0,-9.85938 1.5,0 0,1.5 q 0.57812,-1.04687 1.0625,-1.375 0.48437,-0.34375 1.07812,-0.34375 0.84375,0 1.71875,0.54688 l -0.57812,1.54687 q -0.60938,-0.35937 -1.23438,-0.35937 -0.54687,0 -0.98437,0.32812 -0.42188,0.32813 -0.60938,0.90625 -0.28125,0.89063 -0.28125,1.95313 l 0,5.15625 -1.67187,0 z m 10.16162,0.23437 3.9375,-14.0625 1.34375,0 -3.9375,14.0625 -1.34375,0 z m 21.53848,-5 1.79688,0.45313 q -0.5625,2.21875 -2.03125,3.39062 -1.46875,1.15625 -3.59375,1.15625 -2.20313,0 -3.57813,-0.89062 -1.375,-0.90625 -2.09375,-2.59375 -0.71875,-1.70313 -0.71875,-3.65625 0,-2.125 0.79688,-3.70313 0.8125,-1.57812 2.3125,-2.39062 1.5,-0.82813 3.29687,-0.82813 2.04688,0 3.4375,1.04688 1.39063,1.03125 1.9375,2.90625 l -1.76562,0.42187 q -0.46875,-1.48437 -1.375,-2.15625 -0.90625,-0.6875 -2.26563,-0.6875 -1.5625,0 -2.625,0.75 -1.04687,0.75 -1.48437,2.03125 -0.42188,1.26563 -0.42188,2.60938 0,1.73437 0.5,3.03125 0.51563,1.28125 1.57813,1.92187 1.07812,0.64063 2.3125,0.64063 1.51562,0 2.5625,-0.85938 1.04687,-0.875 1.42187,-2.59375 z m 3.51981,4.76563 0,-13.59375 1.67187,0 0,13.59375 -1.67187,0 z m 3.55108,-4.92188 q 0,-2.73437 1.53125,-4.0625 1.26563,-1.09375 3.09375,-1.09375 2.03125,0 3.3125,1.34375 1.29688,1.32813 1.29688,3.67188 0,1.90625 -0.57813,3 -0.5625,1.07812 -1.65625,1.6875 -1.07812,0.59375 -2.375,0.59375 -2.0625,0 -3.34375,-1.32813 -1.28125,-1.32812 -1.28125,-3.8125 z m 1.71875,0 q 0,1.89063 0.82813,2.82813 0.82812,0.9375 2.07812,0.9375 1.25,0 2.0625,-0.9375 0.82813,-0.95313 0.82813,-2.89063 0,-1.82812 -0.82813,-2.76562 -0.82812,-0.9375 -2.0625,-0.9375 -1.25,0 -2.07812,0.9375 -0.82813,0.9375 -0.82813,2.82812 z m 15.73508,4.92188 0,-1.45313 q -1.14062,1.67188 -3.125,1.67188 -0.85937,0 -1.625,-0.32813 -0.75,-0.34375 -1.125,-0.84375 -0.35937,-0.5 -0.51562,-1.23437 -0.0937,-0.5 -0.0937,-1.5625 l 0,-6.10938 1.67187,0 0,5.46875 q 0,1.3125 0.0937,1.76563 0.15625,0.65625 0.67188,1.03125 0.51562,0.375 1.26562,0.375 0.75,0 1.40625,-0.375 0.65625,-0.39063 0.92188,-1.04688 0.28125,-0.67187 0.28125,-1.9375 l 0,-5.28125 1.67187,0 0,9.85938 -1.5,0 z m 10.31323,0 0,-1.25 q -0.9375,1.46875 -2.75,1.46875 -1.17187,0 -2.17187,-0.64063 -0.98438,-0.65625 -1.53125,-1.8125 -0.53125,-1.17187 -0.53125,-2.6875 0,-1.46875 0.48437,-2.67187 0.5,-1.20313 1.46875,-1.84375 0.98438,-0.64063 2.20313,-0.64063 0.89062,0 1.57812,0.375 0.70313,0.375 1.14063,0.98438 l 0,-4.875 1.65625,0 0,13.59375 -1.54688,0 z m -5.28125,-4.92188 q 0,1.89063 0.79688,2.82813 0.8125,0.9375 1.89062,0.9375 1.09375,0 1.85938,-0.89063 0.76562,-0.89062 0.76562,-2.73437 0,-2.01563 -0.78125,-2.95313 -0.78125,-0.95312 -1.92187,-0.95312 -1.10938,0 -1.85938,0.90625 -0.75,0.90625 -0.75,2.85937 z m 13.19965,5.15625 3.9375,-14.0625 1.34375,0 -3.9375,14.0625 -1.34375,0 z m 11.22598,-4.60937 1.6875,-0.14063 q 0.125,1.01563 0.5625,1.67188 0.4375,0.65625 1.35938,1.0625 0.9375,0.40625 2.09375,0.40625 1.03125,0 1.8125,-0.3125 0.79687,-0.3125 1.1875,-0.84375 0.39062,-0.53125 0.39062,-1.15625 0,-0.64063 -0.375,-1.10938 -0.375,-0.48437 -1.23437,-0.8125 -0.54688,-0.21875 -2.42188,-0.65625 -1.875,-0.45312 -2.625,-0.85937 -0.96875,-0.51563 -1.45312,-1.26563 -0.46875,-0.75 -0.46875,-1.6875 0,-1.03125 0.57812,-1.92187 0.59375,-0.90625 1.70313,-1.35938 1.125,-0.46875 2.5,-0.46875 1.51562,0 2.67187,0.48438 1.15625,0.48437 1.76563,1.4375 0.625,0.9375 0.67187,2.14062 l -1.71875,0.125 q -0.14062,-1.28125 -0.95312,-1.9375 -0.79688,-0.67187 -2.35938,-0.67187 -1.625,0 -2.375,0.60937 -0.75,0.59375 -0.75,1.4375 0,0.73438 0.53125,1.20313 0.51563,0.46875 2.70313,0.96875 2.20312,0.5 3.01562,0.875 1.1875,0.54687 1.75,1.39062 0.57813,0.82813 0.57813,1.92188 0,1.09375 -0.625,2.0625 -0.625,0.95312 -1.79688,1.48437 -1.15625,0.53125 -2.60937,0.53125 -1.84375,0 -3.09375,-0.53125 -1.25,-0.54687 -1.96875,-1.625 -0.70313,-1.07812 -0.73438,-2.45312 z m 12.84983,-7.3125 0,-1.90625 1.67187,0 0,1.90625 -1.67187,0 z m 0,11.6875 0,-9.85938 1.67187,0 0,9.85938 -1.67187,0 z m 4.12918,0 0,-9.85938 1.5,0 0,1.40625 q 1.09375,-1.625 3.14062,-1.625 0.89063,0 1.64063,0.32813 0.75,0.3125 1.10937,0.84375 0.375,0.51562 0.53125,1.21875 0.0937,0.46875 0.0937,1.625 l 0,6.0625 -1.67187,0 0,-6 q 0,-1.01563 -0.20313,-1.51563 -0.1875,-0.51562 -0.6875,-0.8125 -0.5,-0.29687 -1.17187,-0.29687 -1.0625,0 -1.84375,0.67187 -0.76563,0.67188 -0.76563,2.57813 l 0,5.375 -1.67187,0 z m 10.07885,0.8125 1.60938,0.25 q 0.10937,0.75 0.57812,1.09375 0.60938,0.45312 1.6875,0.45312 1.17188,0 1.79688,-0.46875 0.625,-0.45312 0.85937,-1.28125 0.125,-0.51562 0.10938,-2.15625 -1.09375,1.29688 -2.71875,1.29688 -2.03125,0 -3.15625,-1.46875 -1.10938,-1.46875 -1.10938,-3.51563 0,-1.40625 0.51563,-2.59375 0.51562,-1.20312 1.48437,-1.84375 0.96875,-0.65625 2.26563,-0.65625 1.75,0 2.875,1.40625 l 0,-1.1875 1.54687,0 0,8.51563 q 0,2.3125 -0.46875,3.26562 -0.46875,0.96875 -1.48437,1.51563 -1.01563,0.5625 -2.5,0.5625 -1.76563,0 -2.85938,-0.79688 -1.07812,-0.79687 -1.03125,-2.39062 z m 1.375,-5.92188 q 0,1.95313 0.76563,2.84375 0.78125,0.89063 1.9375,0.89063 1.14062,0 1.92187,-0.89063 0.78125,-0.89062 0.78125,-2.78125 0,-1.8125 -0.8125,-2.71875 -0.79687,-0.92187 -1.92187,-0.92187 -1.10938,0 -1.89063,0.90625 -0.78125,0.89062 -0.78125,2.67187 z m 9.26633,5.10938 0,-13.59375 1.67188,0 0,13.59375 -1.67188,0 z m 10.92609,-3.17188 1.71875,0.21875 q -0.40625,1.5 -1.51563,2.34375 -1.09375,0.82813 -2.8125,0.82813 -2.15625,0 -3.42187,-1.32813 -1.26563,-1.32812 -1.26563,-3.73437 0,-2.48438 1.26563,-3.85938 1.28125,-1.375 3.32812,-1.375 1.98438,0 3.23438,1.34375 1.25,1.34375 1.25,3.79688 0,0.14062 -0.0156,0.4375 l -7.34375,0 q 0.0937,1.625 0.92188,2.48437 0.82812,0.85938 2.0625,0.85938 0.90625,0 1.54687,-0.46875 0.65625,-0.48438 1.04688,-1.54688 z m -5.48438,-2.70312 5.5,0 q -0.10937,-1.23438 -0.625,-1.85938 -0.79687,-0.96875 -2.07812,-0.96875 -1.14063,0 -1.9375,0.78125 -0.78125,0.76563 -0.85938,2.04688 z m 14.49652,5.875 0,-13.59375 1.84375,0 7.14063,10.67187 0,-10.67187 1.71875,0 0,13.59375 -1.84375,0 -7.14063,-10.6875 0,10.6875 -1.71875,0 z m 12.64484,-4.92188 q 0,-2.73437 1.53125,-4.0625 1.26562,-1.09375 3.09375,-1.09375 2.03125,0 3.3125,1.34375 1.29687,1.32813 1.29687,3.67188 0,1.90625 -0.57812,3 -0.5625,1.07812 -1.65625,1.6875 -1.07813,0.59375 -2.375,0.59375 -2.0625,0 -3.34375,-1.32813 -1.28125,-1.32812 -1.28125,-3.8125 z m 1.71875,0 q 0,1.89063 0.82812,2.82813 0.82813,0.9375 2.07813,0.9375 1.25,0 2.0625,-0.9375 0.82812,-0.95313 0.82812,-2.89063 0,-1.82812 -0.82812,-2.76562 -0.82813,-0.9375 -2.0625,-0.9375 -1.25,0 -2.07813,0.9375 -0.82812,0.9375 -0.82812,2.82812 z m 15.67261,4.92188 0,-1.25 q -0.9375,1.46875 -2.75,1.46875 -1.17188,0 -2.17188,-0.64063 -0.98437,-0.65625 -1.53125,-1.8125 -0.53125,-1.17187 -0.53125,-2.6875 0,-1.46875 0.48438,-2.67187 0.5,-1.20313 1.46875,-1.84375 0.98437,-0.64063 2.20312,-0.64063 0.89063,0 1.57813,0.375 0.70312,0.375 1.14062,0.98438 l 0,-4.875 1.65625,0 0,13.59375 -1.54687,0 z m -5.28125,-4.92188 q 0,1.89063 0.79687,2.82813 0.8125,0.9375 1.89063,0.9375 1.09375,0 1.85937,-0.89063 0.76563,-0.89062 0.76563,-2.73437 0,-2.01563 -0.78125,-2.95313 -0.78125,-0.95312 -1.92188,-0.95312 -1.10937,0 -1.85937,0.90625 -0.75,0.90625 -0.75,2.85937 z m 16.01635,1.75 1.71875,0.21875 q -0.40625,1.5 -1.51562,2.34375 -1.09375,0.82813 -2.8125,0.82813 -2.15625,0 -3.42188,-1.32813 -1.26562,-1.32812 -1.26562,-3.73437 0,-2.48438 1.26562,-3.85938 1.28125,-1.375 3.32813,-1.375 1.98437,0 3.23437,1.34375 1.25,1.34375 1.25,3.79688 0,0.14062 -0.0156,0.4375 l -7.34375,0 q 0.0937,1.625 0.92187,2.48437 0.82813,0.85938 2.0625,0.85938 0.90625,0 1.54688,-0.46875 0.65625,-0.48438 1.04687,-1.54688 z m -5.48437,-2.70312 5.5,0 q -0.10938,-1.23438 -0.625,-1.85938 -0.79688,-0.96875 -2.07813,-0.96875 -1.14062,0 -1.9375,0.78125 -0.78125,0.76563 -0.85937,2.04688 z m 10.20385,9.875 -1.1875,0 q 2.76563,-4.45313 2.76563,-8.92188 0,-1.73437 -0.39063,-3.45312 -0.32812,-1.39063 -0.89062,-2.67188 -0.35938,-0.84375 -1.48438,-2.78125 l 1.1875,0 q 1.75,2.32813 2.57813,4.67188 0.71875,2.01562 0.71875,4.23437 0,2.5 -0.96875,4.84375 -0.95313,2.32813 -2.32813,4.07813 z" />
</svg>
