<?xml version="1.0" encoding="UTF-8" standalone="no"?>
<svg
   xmlns:dc="http://purl.org/dc/elements/1.1/"
   xmlns:cc="http://creativecommons.org/ns#"
   xmlns:rdf="http://www.w3.org/1999/02/22-rdf-syntax-ns#"
   xmlns:svg="http://www.w3.org/2000/svg"
   xmlns="http://www.w3.org/2000/svg"
   xmlns:sodipodi="http://sodipodi.sourceforge.net/DTD/sodipodi-0.dtd"
   xmlns:inkscape="http://www.inkscape.org/namespaces/inkscape"
   version="1.1"
   viewBox="0 0 417.4724 210.51285"
   stroke-miterlimit="10"
   id="svg2"
   inkscape:version="0.48.4 r9939"
   width="100%"
   height="100%"
   sodipodi:docname="env_basic_simple.svg"
   style="fill:none;stroke:none">
  <metadata
     id="metadata85">
    <rdf:RDF>
      <cc:Work
         rdf:about="">
        <dc:format>image/svg+xml</dc:format>
        <dc:type
           rdf:resource="http://purl.org/dc/dcmitype/StillImage" />
      </cc:Work>
    </rdf:RDF>
  </metadata>
  <defs
     id="defs83" />
  <sodipodi:namedview
     pagecolor="#ffffff"
     bordercolor="#666666"
     borderopacity="1"
     objecttolerance="10"
     gridtolerance="10"
     guidetolerance="10"
     inkscape:pageopacity="0"
     inkscape:pageshadow="2"
     inkscape:window-width="1920"
     inkscape:window-height="1014"
     id="namedview81"
     showgrid="false"
     fit-margin-top="0"
     fit-margin-left="0"
     fit-margin-right="0"
     fit-margin-bottom="0"
     inkscape:zoom="0.80040559"
     inkscape:cx="280.58065"
     inkscape:cy="118.2475"
     inkscape:window-x="0"
     inkscape:window-y="27"
     inkscape:window-maximized="1"
     inkscape:current-layer="svg2" />
  <clipPath
     id="gb39d71cc9_0_6.0">
    <path
       d="M 0,0 960,0 960,720 0,720 0,0 z"
       clip-rule="nonzero"
       id="path5"
       inkscape:connector-curvature="0" />
  </clipPath>
  <path
     style="fill:#e4f5e3;fill-rule:nonzero"
     inkscape:connector-curvature="0"
     id="path15"
     d="m 216.65746,53.8307 200.31494,0 0,46.01575 -200.31494,0 z" />
  <path
     style="stroke:#40a13b;stroke-width:1;stroke-linecap:butt;stroke-linejoin:round"
     inkscape:connector-curvature="0"
     id="path17"
     d="m 216.65746,53.8307 200.31494,0 0,46.01575 -200.31494,0 z" />
  <path
     style="fill:#033300;fill-rule:nonzero"
     inkscape:connector-curvature="0"
     id="path19"
     d="m 227.21996,83.7586 0,-13.59375 9.17188,0 0,1.59375 -7.375,0 0,4.21875 6.375,0 0,1.60937 -6.375,0 0,6.17188 -1.79688,0 z m 11.05222,0 0,-13.59375 1.67187,0 0,13.59375 -1.67187,0 z m 4.19168,-11.6875 0,-1.90625 1.67187,0 0,1.90625 -1.67187,0 z m 0,11.6875 0,-9.85938 1.67187,0 0,9.85938 -1.67187,0 z m 4.12921,0 0,-9.85938 1.5,0 0,1.40625 q 1.09375,-1.625 3.14062,-1.625 0.89063,0 1.64063,0.32813 0.75,0.3125 1.10937,0.84375 0.375,0.51562 0.53125,1.21875 0.0937,0.46875 0.0937,1.625 l 0,6.0625 -1.67187,0 0,-6 q 0,-1.01563 -0.20313,-1.51563 -0.1875,-0.51562 -0.6875,-0.8125 -0.5,-0.29687 -1.17187,-0.29687 -1.0625,0 -1.84375,0.67187 -0.76563,0.67188 -0.76563,2.57813 l 0,5.375 -1.67187,0 z m 10.39136,0 0,-13.59375 1.67187,0 0,7.75 3.95313,-4.01563 2.15625,0 -3.76563,3.65625 4.14063,6.20313 -2.0625,0 -3.25,-5.03125 -1.17188,1.125 0,3.90625 -1.67187,0 z m 17.68328,4 q -1.375,-1.75 -2.32812,-4.07813 -0.95313,-2.34375 -0.95313,-4.84375 0,-2.21875 0.70313,-4.23437 0.84375,-2.34375 2.57812,-4.67188 l 1.20313,0 q -1.125,1.92188 -1.48438,2.75 -0.5625,1.28125 -0.89062,2.67188 -0.40625,1.73437 -0.40625,3.48437 0,4.46875 2.78125,8.92188 l -1.20313,0 z m 2.63459,-8.375 1.6875,-0.14063 q 0.125,1.01563 0.5625,1.67188 0.4375,0.65625 1.35937,1.0625 0.9375,0.40625 2.09375,0.40625 1.03125,0 1.8125,-0.3125 0.79688,-0.3125 1.1875,-0.84375 0.39063,-0.53125 0.39063,-1.15625 0,-0.64063 -0.375,-1.10938 -0.375,-0.48437 -1.23438,-0.8125 -0.54687,-0.21875 -2.42187,-0.65625 -1.875,-0.45312 -2.625,-0.85937 -0.96875,-0.51563 -1.45313,-1.26563 -0.46875,-0.75 -0.46875,-1.6875 0,-1.03125 0.57813,-1.92187 0.59375,-0.90625 1.70312,-1.35938 1.125,-0.46875 2.5,-0.46875 1.51563,0 2.67188,0.48438 1.15625,0.48437 1.76562,1.4375 0.625,0.9375 0.67188,2.14062 l -1.71875,0.125 q -0.14063,-1.28125 -0.95313,-1.9375 -0.79687,-0.67187 -2.35937,-0.67187 -1.625,0 -2.375,0.60937 -0.75,0.59375 -0.75,1.4375 0,0.73438 0.53125,1.20313 0.51562,0.46875 2.70312,0.96875 2.20313,0.5 3.01563,0.875 1.1875,0.54687 1.75,1.39062 0.57812,0.82813 0.57812,1.92188 0,1.09375 -0.625,2.0625 -0.625,0.95312 -1.79687,1.48437 -1.15625,0.53125 -2.60938,0.53125 -1.84375,0 -3.09375,-0.53125 -1.25,-0.54687 -1.96875,-1.625 -0.70312,-1.07812 -0.73437,-2.45312 z m 21.97479,-9.21875 1.79687,0 0,7.84375 q 0,2.0625 -0.46875,3.26562 -0.45312,1.20313 -1.67187,1.96875 -1.20313,0.75 -3.17188,0.75 -1.90625,0 -3.125,-0.65625 -1.21875,-0.65625 -1.73437,-1.90625 -0.51563,-1.25 -0.51563,-3.42187 l 0,-7.84375 1.79688,0 0,7.84375 q 0,1.76562 0.32812,2.60937 0.32813,0.84375 1.125,1.29688 0.8125,0.45312 1.96875,0.45312 1.98438,0 2.82813,-0.89062 0.84375,-0.90625 0.84375,-3.46875 l 0,-7.84375 z m 8.00421,13.59375 0,-12 -4.46875,0 0,-1.59375 10.76562,0 0,1.59375 -4.5,0 0,12 -1.79687,0 z m 8.81787,4 -1.1875,0 q 2.76563,-4.45313 2.76563,-8.92188 0,-1.73437 -0.39063,-3.45312 -0.32812,-1.39063 -0.89062,-2.67188 -0.35938,-0.84375 -1.48438,-2.78125 l 1.1875,0 q 1.75,2.32813 2.57813,4.67188 0.71875,2.01562 0.71875,4.23437 0,2.5 -0.96875,4.84375 -0.95313,2.32813 -2.32813,4.07813 z" />
  <path
     style="fill:#8ad386;fill-rule:nonzero"
     inkscape:connector-curvature="0"
     id="path21"
     d="m 334.6785,59.73118 78.74017,0 0,35.40158 -78.74017,0 z" />
  <path
     style="stroke:#40a13b;stroke-width:1;stroke-linecap:butt;stroke-linejoin:round;stroke-dasharray:1, 3"
     inkscape:connector-curvature="0"
     id="path23"
     d="m 334.6785,59.73118 78.74017,0 0,35.40158 -78.74017,0 z" />
  <path
     style="fill:#033300;fill-rule:nonzero"
     inkscape:connector-curvature="0"
     id="path25"
     d="m 358.2564,79.58634 1.79688,0.45312 q -0.5625,2.21875 -2.03125,3.39063 -1.46875,1.15625 -3.59375,1.15625 -2.20313,0 -3.57813,-0.89063 -1.375,-0.90625 -2.09375,-2.59375 -0.71875,-1.70312 -0.71875,-3.65625 0,-2.125 0.79688,-3.70312 0.8125,-1.57813 2.3125,-2.39063 1.5,-0.82812 3.29687,-0.82812 2.04688,0 3.4375,1.04687 1.39063,1.03125 1.9375,2.90625 l -1.76562,0.42188 q -0.46875,-1.48438 -1.375,-2.15625 -0.90625,-0.6875 -2.26563,-0.6875 -1.5625,0 -2.625,0.75 -1.04687,0.75 -1.48437,2.03125 -0.42188,1.26562 -0.42188,2.60937 0,1.73438 0.5,3.03125 0.51563,1.28125 1.57813,1.92188 1.07812,0.64062 2.3125,0.64062 1.51562,0 2.5625,-0.85937 1.04687,-0.875 1.42187,-2.59375 z m 2.92603,-0.15625 q 0,-2.73438 1.53125,-4.0625 1.26562,-1.09375 3.09375,-1.09375 2.03125,0 3.3125,1.34375 1.29687,1.32812 1.29687,3.67187 0,1.90625 -0.57812,3 -0.5625,1.07813 -1.65625,1.6875 -1.07813,0.59375 -2.375,0.59375 -2.0625,0 -3.34375,-1.32812 -1.28125,-1.32813 -1.28125,-3.8125 z m 1.71875,0 q 0,1.89062 0.82812,2.82812 0.82813,0.9375 2.07813,0.9375 1.25,0 2.0625,-0.9375 0.82812,-0.95312 0.82812,-2.89062 0,-1.82813 -0.82812,-2.76563 -0.82813,-0.9375 -2.0625,-0.9375 -1.25,0 -2.07813,0.9375 -0.82812,0.9375 -0.82812,2.82813 z m 9.28198,4.92187 0,-9.85937 1.5,0 0,1.40625 q 1.09375,-1.625 3.14062,-1.625 0.89063,0 1.64063,0.32812 0.75,0.3125 1.10937,0.84375 0.375,0.51563 0.53125,1.21875 0.0937,0.46875 0.0937,1.625 l 0,6.0625 -1.67187,0 0,-6 q 0,-1.01562 -0.20313,-1.51562 -0.1875,-0.51563 -0.6875,-0.8125 -0.5,-0.29688 -1.17187,-0.29688 -1.0625,0 -1.84375,0.67188 -0.76563,0.67187 -0.76563,2.57812 l 0,5.375 -1.67187,0 z m 10.78198,0 0,-8.54687 -1.48438,0 0,-1.3125 1.48438,0 0,-1.04688 q 0,-0.98437 0.17187,-1.46875 0.23438,-0.65625 0.84375,-1.04687 0.60938,-0.40625 1.70313,-0.40625 0.70312,0 1.5625,0.15625 l -0.25,1.46875 q -0.51563,-0.0937 -0.98438,-0.0937 -0.76562,0 -1.07812,0.32812 -0.3125,0.3125 -0.3125,1.20313 l 0,0.90625 1.92187,0 0,1.3125 -1.92187,0 0,8.54687 -1.65625,0 z m 4.79266,-11.6875 0,-1.90625 1.67188,0 0,1.90625 -1.67188,0 z m 0,11.6875 0,-9.85937 1.67188,0 0,9.85937 -1.67188,0 z m 3.83234,0.8125 1.60937,0.25 q 0.10938,0.75 0.57813,1.09375 0.60937,0.45313 1.6875,0.45313 1.17187,0 1.79687,-0.46875 0.625,-0.45313 0.85938,-1.28125 0.125,-0.51563 0.10937,-2.15625 -1.09375,1.29687 -2.71875,1.29687 -2.03125,0 -3.15625,-1.46875 -1.10937,-1.46875 -1.10937,-3.51562 0,-1.40625 0.51562,-2.59375 0.51563,-1.20313 1.48438,-1.84375 0.96875,-0.65625 2.26562,-0.65625 1.75,0 2.875,1.40625 l 0,-1.1875 1.54688,0 0,8.51562 q 0,2.3125 -0.46875,3.26563 -0.46875,0.96875 -1.48438,1.51562 -1.01562,0.5625 -2.5,0.5625 -1.76562,0 -2.85937,-0.79687 -1.07813,-0.79688 -1.03125,-2.39063 z m 1.375,-5.92187 q 0,1.95312 0.76562,2.84375 0.78125,0.89062 1.9375,0.89062 1.14063,0 1.92188,-0.89062 0.78125,-0.89063 0.78125,-2.78125 0,-1.8125 -0.8125,-2.71875 -0.79688,-0.92188 -1.92188,-0.92188 -1.10937,0 -1.89062,0.90625 -0.78125,0.89063 -0.78125,2.67188 z" />
  <path
     style="fill:#e4f5e3;fill-rule:nonzero"
     inkscape:connector-curvature="0"
     id="path27"
     d="m 0.5,108.2139 416.4724,0 0,46.01575 -416.4724,0 z" />
  <path
     style="stroke:#40a13b;stroke-width:1;stroke-linecap:butt;stroke-linejoin:round"
     inkscape:connector-curvature="0"
     id="path29"
     d="m 0.5,108.2139 416.4724,0 0,46.01575 -416.4724,0 z" />
  <path
     style="fill:#033300;fill-rule:nonzero"
     inkscape:connector-curvature="0"
     id="path31"
     d="m 184.85912,138.14176 0,-13.59375 1.8125,0 0,5.57812 7.0625,0 0,-5.57812 1.79688,0 0,13.59375 -1.79688,0 0,-6.40625 -7.0625,0 0,6.40625 -1.8125,0 z m 13.42606,0 0,-13.59375 4.6875,0 q 1.57812,0 2.42187,0.1875 1.15625,0.26562 1.98438,0.96875 1.07812,0.92187 1.60937,2.34375 0.53125,1.40625 0.53125,3.21875 0,1.54687 -0.35937,2.75 -0.35938,1.1875 -0.92188,1.98437 -0.5625,0.78125 -1.23437,1.23438 -0.67188,0.4375 -1.625,0.67187 -0.95313,0.23438 -2.1875,0.23438 l -4.90625,0 z m 1.79687,-1.60938 2.90625,0 q 1.34375,0 2.10938,-0.25 0.76562,-0.25 1.21875,-0.70312 0.64062,-0.64063 1,-1.71875 0.35937,-1.07813 0.35937,-2.625 0,-2.125 -0.70312,-3.26563 -0.70313,-1.15625 -1.70313,-1.54687 -0.71875,-0.28125 -2.32812,-0.28125 l -2.85938,0 0,10.39062 z m 11.76984,1.60938 0,-13.59375 9.17187,0 0,1.59375 -7.375,0 0,4.21875 6.375,0 0,1.60937 -6.375,0 0,6.17188 -1.79687,0 z m 10.69284,-4.375 1.6875,-0.14063 q 0.125,1.01563 0.5625,1.67188 0.4375,0.65625 1.35937,1.0625 0.9375,0.40625 2.09375,0.40625 1.03125,0 1.8125,-0.3125 0.79688,-0.3125 1.1875,-0.84375 0.39063,-0.53125 0.39063,-1.15625 0,-0.64063 -0.375,-1.10938 -0.375,-0.48437 -1.23438,-0.8125 -0.54687,-0.21875 -2.42187,-0.65625 -1.875,-0.45312 -2.625,-0.85937 -0.96875,-0.51563 -1.45313,-1.26563 -0.46875,-0.75 -0.46875,-1.6875 0,-1.03125 0.57813,-1.92187 0.59375,-0.90625 1.70312,-1.35938 1.125,-0.46875 2.5,-0.46875 1.51563,0 2.67188,0.48438 1.15625,0.48437 1.76562,1.4375 0.625,0.9375 0.67188,2.14062 l -1.71875,0.125 q -0.14063,-1.28125 -0.95313,-1.9375 -0.79687,-0.67187 -2.35937,-0.67187 -1.625,0 -2.375,0.60937 -0.75,0.59375 -0.75,1.4375 0,0.73438 0.53125,1.20313 0.51562,0.46875 2.70312,0.96875 2.20313,0.5 3.01563,0.875 1.1875,0.54687 1.75,1.39062 0.57812,0.82813 0.57812,1.92188 0,1.09375 -0.625,2.0625 -0.625,0.95312 -1.79687,1.48437 -1.15625,0.53125 -2.60938,0.53125 -1.84375,0 -3.09375,-0.53125 -1.25,-0.54687 -1.96875,-1.625 -0.70312,-1.07812 -0.73437,-2.45312 z" />
  <path
     style="fill:#8ad386;fill-rule:nonzero"
     inkscape:connector-curvature="0"
     id="path33"
     d="m 334.5132,114.11302 78.74017,0 0,35.40158 -78.74017,0 z" />
  <path
     style="stroke:#40a13b;stroke-width:1;stroke-linecap:butt;stroke-linejoin:round;stroke-dasharray:1, 3"
     inkscape:connector-curvature="0"
     id="path35"
     d="m 334.5132,114.11302 78.74017,0 0,35.40158 -78.74017,0 z" />
  <path
     style="fill:#033300;fill-rule:nonzero"
     inkscape:connector-curvature="0"
     id="path37"
     d="m 358.091,133.96818 1.79687,0.45313 q -0.5625,2.21875 -2.03125,3.39062 -1.46875,1.15625 -3.59375,1.15625 -2.20312,0 -3.57812,-0.89062 -1.375,-0.90625 -2.09375,-2.59375 -0.71875,-1.70313 -0.71875,-3.65625 0,-2.125 0.79687,-3.70313 0.8125,-1.57812 2.3125,-2.39062 1.5,-0.82813 3.29688,-0.82813 2.04687,0 3.4375,1.04688 1.39062,1.03125 1.9375,2.90625 l -1.76563,0.42187 q -0.46875,-1.48437 -1.375,-2.15625 -0.90625,-0.6875 -2.26562,-0.6875 -1.5625,0 -2.625,0.75 -1.04688,0.75 -1.48438,2.03125 -0.42187,1.26563 -0.42187,2.60938 0,1.73437 0.5,3.03125 0.51562,1.28125 1.57812,1.92187 1.07813,0.64063 2.3125,0.64063 1.51563,0 2.5625,-0.85938 1.04688,-0.875 1.42188,-2.59375 z m 2.92609,-0.15625 q 0,-2.73437 1.53125,-4.0625 1.26562,-1.09375 3.09375,-1.09375 2.03125,0 3.3125,1.34375 1.29687,1.32813 1.29687,3.67188 0,1.90625 -0.57812,3 -0.5625,1.07812 -1.65625,1.6875 -1.07813,0.59375 -2.375,0.59375 -2.0625,0 -3.34375,-1.32813 -1.28125,-1.32812 -1.28125,-3.8125 z m 1.71875,0 q 0,1.89063 0.82812,2.82813 0.82813,0.9375 2.07813,0.9375 1.25,0 2.0625,-0.9375 0.82812,-0.95313 0.82812,-2.89063 0,-1.82812 -0.82812,-2.76562 -0.82813,-0.9375 -2.0625,-0.9375 -1.25,0 -2.07813,0.9375 -0.82812,0.9375 -0.82812,2.82812 z m 9.28198,4.92188 0,-9.85938 1.5,0 0,1.40625 q 1.09375,-1.625 3.14062,-1.625 0.89063,0 1.64063,0.32813 0.75,0.3125 1.10937,0.84375 0.375,0.51562 0.53125,1.21875 0.0937,0.46875 0.0937,1.625 l 0,6.0625 -1.67187,0 0,-6 q 0,-1.01563 -0.20313,-1.51563 -0.1875,-0.51562 -0.6875,-0.8125 -0.5,-0.29687 -1.17187,-0.29687 -1.0625,0 -1.84375,0.67187 -0.76563,0.67188 -0.76563,2.57813 l 0,5.375 -1.67187,0 z m 10.78198,0 0,-8.54688 -1.48437,0 0,-1.3125 1.48437,0 0,-1.04687 q 0,-0.98438 0.17188,-1.46875 0.23437,-0.65625 0.84375,-1.04688 0.60937,-0.40625 1.70312,-0.40625 0.70313,0 1.5625,0.15625 l -0.25,1.46875 q -0.51562,-0.0937 -0.98437,-0.0937 -0.76563,0 -1.07813,0.32813 -0.3125,0.3125 -0.3125,1.20312 l 0,0.90625 1.92188,0 0,1.3125 -1.92188,0 0,8.54688 -1.65625,0 z m 4.79266,-11.6875 0,-1.90625 1.67188,0 0,1.90625 -1.67188,0 z m 0,11.6875 0,-9.85938 1.67188,0 0,9.85938 -1.67188,0 z m 3.83234,0.8125 1.60938,0.25 q 0.10937,0.75 0.57812,1.09375 0.60938,0.45312 1.6875,0.45312 1.17188,0 1.79688,-0.46875 0.625,-0.45312 0.85937,-1.28125 0.125,-0.51562 0.10938,-2.15625 -1.09375,1.29688 -2.71875,1.29688 -2.03125,0 -3.15625,-1.46875 -1.10938,-1.46875 -1.10938,-3.51563 0,-1.40625 0.51563,-2.59375 0.51562,-1.20312 1.48437,-1.84375 0.96875,-0.65625 2.26563,-0.65625 1.75,0 2.875,1.40625 l 0,-1.1875 1.54687,0 0,8.51563 q 0,2.3125 -0.46875,3.26562 -0.46875,0.96875 -1.48437,1.51563 -1.01563,0.5625 -2.5,0.5625 -1.76563,0 -2.85938,-0.79688 -1.07812,-0.79687 -1.03125,-2.39062 z m 1.375,-5.92188 q 0,1.95313 0.76563,2.84375 0.78125,0.89063 1.9375,0.89063 1.14062,0 1.92187,-0.89063 0.78125,-0.89062 0.78125,-2.78125 0,-1.8125 -0.8125,-2.71875 -0.79687,-0.92187 -1.92187,-0.92187 -1.10938,0 -1.89063,0.90625 -0.78125,0.89062 -0.78125,2.67187 z" />
  <path
     style="fill:#e4f5e3;fill-rule:nonzero"
     inkscape:connector-curvature="0"
     id="path39"
     d="m 216.65746,0.5 200.31494,0 0,46.01576 -200.31494,0 z" />
  <path
     style="stroke:#40a13b;stroke-width:1;stroke-linecap:butt;stroke-linejoin:round"
     inkscape:connector-curvature="0"
     id="path41"
     d="m 216.65746,0.5 200.31494,0 0,46.01576 -200.31494,0 z" />
  <path
     style="fill:#033300;fill-rule:nonzero"
     inkscape:connector-curvature="0"
     id="path43"
     d="m 227.21996,30.42787 0,-13.59375 9.17188,0 0,1.59375 -7.375,0 0,4.21875 6.375,0 0,1.60937 -6.375,0 0,6.17188 -1.79688,0 z m 11.05222,0 0,-13.59375 1.67187,0 0,13.59375 -1.67187,0 z m 4.19168,-11.6875 0,-1.90625 1.67187,0 0,1.90625 -1.67187,0 z m 0,11.6875 0,-9.85938 1.67187,0 0,9.85938 -1.67187,0 z m 4.12921,0 0,-9.85938 1.5,0 0,1.40625 q 1.09375,-1.625 3.14062,-1.625 0.89063,0 1.64063,0.32813 0.75,0.3125 1.10937,0.84375 0.375,0.51562 0.53125,1.21875 0.0937,0.46875 0.0937,1.625 l 0,6.0625 -1.67187,0 0,-6 q 0,-1.01563 -0.20313,-1.51563 -0.1875,-0.51562 -0.6875,-0.8125 -0.5,-0.29687 -1.17187,-0.29687 -1.0625,0 -1.84375,0.67187 -0.76563,0.67188 -0.76563,2.57813 l 0,5.375 -1.67187,0 z m 10.39136,0 0,-13.59375 1.67187,0 0,7.75 3.95313,-4.01563 2.15625,0 -3.76563,3.65625 4.14063,6.20313 -2.0625,0 -3.25,-5.03125 -1.17188,1.125 0,3.90625 -1.67187,0 z m 11.90625,0 -3.60938,-13.59375 1.84375,0 2.0625,8.90625 q 0.34375,1.40625 0.57813,2.78125 0.51562,-2.17188 0.60937,-2.51563 l 2.59375,-9.17187 2.17188,0 1.95312,6.875 q 0.73438,2.5625 1.04688,4.8125 0.26562,-1.28125 0.6875,-2.95313 l 2.125,-8.73437 1.8125,0 -3.73438,13.59375 -1.73437,0 -2.85938,-10.35938 q -0.35937,-1.29687 -0.42187,-1.59375 -0.21875,0.9375 -0.40625,1.59375 l -2.89063,10.35938 -1.82812,0 z m 24.93676,-4.76563 1.79688,0.45313 q -0.5625,2.21875 -2.03125,3.39062 -1.46875,1.15625 -3.59375,1.15625 -2.20313,0 -3.57813,-0.89062 -1.375,-0.90625 -2.09375,-2.59375 -0.71875,-1.70313 -0.71875,-3.65625 0,-2.125 0.79688,-3.70313 0.8125,-1.57812 2.3125,-2.39062 1.5,-0.82813 3.29687,-0.82813 2.04688,0 3.4375,1.04688 1.39063,1.03125 1.9375,2.90625 l -1.76562,0.42187 q -0.46875,-1.48437 -1.375,-2.15625 -0.90625,-0.6875 -2.26563,-0.6875 -1.5625,0 -2.625,0.75 -1.04687,0.75 -1.48437,2.03125 -0.42188,1.26563 -0.42188,2.60938 0,1.73437 0.5,3.03125 0.51563,1.28125 1.57813,1.92187 1.07812,0.64063 2.3125,0.64063 1.51562,0 2.5625,-0.85938 1.04687,-0.875 1.42187,-2.59375 z" />
  <path
     style="fill:#8ad386;fill-rule:nonzero"
     inkscape:connector-curvature="0"
     id="path45"
     d="m 333.77484,5.806 78.74017,0 0,35.40158 -78.74017,0 z" />
  <path
     style="stroke:#40a13b;stroke-width:1;stroke-linecap:butt;stroke-linejoin:round;stroke-dasharray:1, 3"
     inkscape:connector-curvature="0"
     id="path47"
     d="m 333.77484,5.806 78.74017,0 0,35.40158 -78.74017,0 z" />
  <path
     style="fill:#033300;fill-rule:nonzero"
     inkscape:connector-curvature="0"
     id="path49"
     d="m 347.1394,30.4268 0,-13.59375 5.125,0 q 1.35937,0 2.07812,0.125 1,0.17188 1.67188,0.64063 0.67187,0.46875 1.07812,1.3125 0.42188,0.84375 0.42188,1.84375 0,1.73437 -1.10938,2.9375 -1.09375,1.20312 -3.98437,1.20312 l -3.48438,0 0,5.53125 -1.79687,0 z m 1.79687,-7.14062 3.51563,0 q 1.75,0 2.46875,-0.64063 0.73437,-0.65625 0.73437,-1.82812 0,-0.85938 -0.4375,-1.46875 -0.42187,-0.60938 -1.125,-0.79688 -0.45312,-0.125 -1.67187,-0.125 l -3.48438,0 0,4.85938 z m 16.86548,5.92187 q -0.9375,0.79688 -1.79687,1.125 -0.85938,0.3125 -1.84375,0.3125 -1.60938,0 -2.48438,-0.78125 -0.875,-0.79687 -0.875,-2.03125 0,-0.73437 0.32813,-1.32812 0.32812,-0.59375 0.85937,-0.95313 0.53125,-0.35937 1.20313,-0.54687 0.5,-0.14063 1.48437,-0.25 2.03125,-0.25 2.98438,-0.57813 0,-0.34375 0,-0.4375 0,-1.01562 -0.46875,-1.4375 -0.64063,-0.5625 -1.90625,-0.5625 -1.17188,0 -1.73438,0.40625 -0.5625,0.40625 -0.82812,1.46875 L 359.083,23.37993 q 0.23438,-1.04688 0.73438,-1.6875 0.51562,-0.64063 1.46875,-0.98438 0.96875,-0.35937 2.25,-0.35937 1.26562,0 2.04687,0.29687 0.78125,0.29688 1.15625,0.75 0.375,0.45313 0.51563,1.14063 0.0937,0.42187 0.0937,1.53125 l 0,2.23437 q 0,2.32813 0.0937,2.95313 0.10937,0.60937 0.4375,1.17187 l -1.75,0 q -0.26563,-0.51562 -0.32813,-1.21875 z m -0.14062,-3.71875 q -0.90625,0.35938 -2.73438,0.625 -1.03125,0.14063 -1.45312,0.32813 -0.42188,0.1875 -0.65625,0.54687 -0.23438,0.35938 -0.23438,0.79688 0,0.67187 0.5,1.125 0.51563,0.4375 1.48438,0.4375 0.96875,0 1.71875,-0.42188 0.75,-0.4375 1.10937,-1.15625 0.26563,-0.57812 0.26563,-1.67187 l 0,-0.60938 z m 4.06323,4.9375 0,-9.85937 1.5,0 0,1.5 q 0.57813,-1.04688 1.0625,-1.375 0.48438,-0.34375 1.07813,-0.34375 0.84375,0 1.71875,0.54687 l -0.57813,1.54688 q -0.60937,-0.35938 -1.23437,-0.35938 -0.54688,0 -0.98438,0.32813 -0.42187,0.32812 -0.60937,0.90625 -0.28125,0.89062 -0.28125,1.95312 l 0,5.15625 -1.67188,0 z m 12.66577,-1.21875 q -0.9375,0.79688 -1.79687,1.125 -0.85938,0.3125 -1.84375,0.3125 -1.60938,0 -2.48438,-0.78125 -0.875,-0.79687 -0.875,-2.03125 0,-0.73437 0.32813,-1.32812 0.32812,-0.59375 0.85937,-0.95313 0.53125,-0.35937 1.20313,-0.54687 0.5,-0.14063 1.48437,-0.25 2.03125,-0.25 2.98438,-0.57813 0,-0.34375 0,-0.4375 0,-1.01562 -0.46875,-1.4375 -0.64063,-0.5625 -1.90625,-0.5625 -1.17188,0 -1.73438,0.40625 -0.5625,0.40625 -0.82812,1.46875 l -1.64063,-0.23437 q 0.23438,-1.04688 0.73438,-1.6875 0.51562,-0.64063 1.46875,-0.98438 0.96875,-0.35937 2.25,-0.35937 1.26562,0 2.04687,0.29687 0.78125,0.29688 1.15625,0.75 0.375,0.45313 0.51563,1.14063 0.0937,0.42187 0.0937,1.53125 l 0,2.23437 q 0,2.32813 0.0937,2.95313 0.10937,0.60937 0.4375,1.17187 l -1.75,0 q -0.26563,-0.51562 -0.32813,-1.21875 z m -0.14062,-3.71875 q -0.90625,0.35938 -2.73438,0.625 -1.03125,0.14063 -1.45312,0.32813 -0.42188,0.1875 -0.65625,0.54687 -0.23438,0.35938 -0.23438,0.79688 0,0.67187 0.5,1.125 0.51563,0.4375 1.48438,0.4375 0.96875,0 1.71875,-0.42188 0.75,-0.4375 1.10937,-1.15625 0.26563,-0.57812 0.26563,-1.67187 l 0,-0.60938 z m 4.07886,4.9375 0,-9.85937 1.5,0 0,1.39062 q 0.45312,-0.71875 1.21875,-1.15625 0.78125,-0.45312 1.76562,-0.45312 1.09375,0 1.79688,0.45312 0.70312,0.45313 0.98437,1.28125 1.17188,-1.73437 3.04688,-1.73437 1.46875,0 2.25,0.8125 0.79687,0.8125 0.79687,2.5 l 0,6.76562 -1.67187,0 0,-6.20312 q 0,-1 -0.15625,-1.4375 -0.15625,-0.45313 -0.59375,-0.71875 -0.42188,-0.26563 -1,-0.26563 -1.03125,0 -1.71875,0.6875 -0.6875,0.6875 -0.6875,2.21875 l 0,5.71875 -1.67188,0 0,-6.40625 q 0,-1.10937 -0.40625,-1.65625 -0.40625,-0.5625 -1.34375,-0.5625 -0.70312,0 -1.3125,0.375 -0.59375,0.35938 -0.85937,1.07813 -0.26563,0.71875 -0.26563,2.0625 l 0,5.10937 -1.67187,0 z" />
  <path
     style="fill:#e4f5e3;fill-rule:nonzero"
     inkscape:connector-curvature="0"
     id="path51"
     d="m 0.5,163.9971 416.4724,0 0,46.01575 -416.4724,0 z" />
  <path
     style="stroke:#40a13b;stroke-width:1;stroke-linecap:butt;stroke-linejoin:round"
     inkscape:connector-curvature="0"
     id="path53"
     d="m 0.5,163.9971 416.4724,0 0,46.01575 -416.4724,0 z" />
  <path
     style="fill:#033300;fill-rule:nonzero"
     inkscape:connector-curvature="0"
     id="path55"
     d="m 61.97653,193.925 0,-13.59375 1.8125,0 0,5.57813 7.0625,0 0,-5.57813 1.79687,0 0,13.59375 -1.79687,0 0,-6.40625 -7.0625,0 0,6.40625 -1.8125,0 z m 12.58231,-4.92187 q 0,-2.73438 1.53125,-4.0625 1.26562,-1.09375 3.09375,-1.09375 2.03125,0 3.3125,1.34375 1.29687,1.32812 1.29687,3.67187 0,1.90625 -0.57812,3 -0.5625,1.07813 -1.65625,1.6875 -1.07813,0.59375 -2.375,0.59375 -2.0625,0 -3.34375,-1.32812 -1.28125,-1.32813 -1.28125,-3.8125 z m 1.71875,0 q 0,1.89062 0.82812,2.82812 0.82813,0.9375 2.07813,0.9375 1.25,0 2.0625,-0.9375 0.82812,-0.95312 0.82812,-2.89062 0,-1.82813 -0.82812,-2.76563 -0.82813,-0.9375 -2.0625,-0.9375 -1.25,0 -2.07813,0.9375 -0.82812,0.9375 -0.82812,2.82813 z m 8.6101,1.98437 1.65625,-0.26562 q 0.14063,1 0.76563,1.53125 0.64062,0.51562 1.78125,0.51562 1.15625,0 1.70312,-0.46875 0.5625,-0.46875 0.5625,-1.09375 0,-0.5625 -0.48437,-0.89062 -0.34375,-0.21875 -1.70313,-0.5625 -1.84375,-0.46875 -2.5625,-0.79688 -0.70312,-0.34375 -1.07812,-0.9375 -0.35938,-0.60937 -0.35938,-1.32812 0,-0.65625 0.29688,-1.21875 0.3125,-0.5625 0.82812,-0.9375 0.39063,-0.28125 1.0625,-0.48438 0.67188,-0.20312 1.4375,-0.20312 1.17188,0 2.04688,0.34375 0.875,0.32812 1.28125,0.90625 0.42187,0.5625 0.57812,1.51562 l -1.625,0.21875 q -0.10937,-0.75 -0.65625,-1.17187 -0.53125,-0.4375 -1.5,-0.4375 -1.15625,0 -1.64062,0.39062 -0.48438,0.375 -0.48438,0.875 0,0.32813 0.20313,0.59375 0.20312,0.26563 0.64062,0.4375 0.25,0.0937 1.46875,0.4375 1.76563,0.46875 2.46875,0.76563 0.70313,0.29687 1.09375,0.875 0.40625,0.57812 0.40625,1.4375 0,0.82812 -0.48437,1.57812 -0.48438,0.73438 -1.40625,1.14063 -0.92188,0.39062 -2.07813,0.39062 -1.92187,0 -2.9375,-0.79687 -1,-0.79688 -1.28125,-2.35938 z m 13.65625,1.4375 0.23438,1.48438 q -0.70313,0.14062 -1.26563,0.14062 -0.90625,0 -1.40625,-0.28125 -0.5,-0.29687 -0.70312,-0.75 -0.20313,-0.46875 -0.20313,-1.98437 l 0,-5.65625 -1.23437,0 0,-1.3125 1.23437,0 0,-2.4375 1.65625,-1 0,3.4375 1.6875,0 0,1.3125 -1.6875,0 0,5.75 q 0,0.71875 0.0781,0.92187 0.0937,0.20313 0.29687,0.32813 0.20313,0.125 0.57813,0.125 0.26562,0 0.73437,-0.0781 z m 9.89786,5.5 q -1.375,-1.75 -2.32812,-4.07812 -0.95313,-2.34375 -0.95313,-4.84375 0,-2.21875 0.70313,-4.23438 0.84375,-2.34375 2.57812,-4.67187 l 1.20313,0 q -1.125,1.92187 -1.48438,2.75 -0.5625,1.28125 -0.89062,2.67187 -0.40625,1.73438 -0.40625,3.48438 0,4.46875 2.78125,8.92187 l -1.20313,0 z m 12.94705,-8.76562 1.79688,0.45312 q -0.5625,2.21875 -2.03125,3.39063 -1.46875,1.15625 -3.59375,1.15625 -2.20313,0 -3.57813,-0.89063 -1.375,-0.90625 -2.09375,-2.59375 -0.71875,-1.70312 -0.71875,-3.65625 0,-2.125 0.79688,-3.70312 0.8125,-1.57813 2.3125,-2.39063 1.5,-0.82812 3.29687,-0.82812 2.04688,0 3.4375,1.04687 1.39063,1.03125 1.9375,2.90625 l -1.76562,0.42188 q -0.46875,-1.48438 -1.375,-2.15625 -0.90625,-0.6875 -2.26563,-0.6875 -1.5625,0 -2.625,0.75 -1.04687,0.75 -1.48437,2.03125 -0.42188,1.26562 -0.42188,2.60937 0,1.73438 0.5,3.03125 0.51563,1.28125 1.57813,1.92188 1.07812,0.64062 2.3125,0.64062 1.51562,0 2.5625,-0.85937 1.04687,-0.875 1.42187,-2.59375 z m 3.51981,4.76562 0,-13.59375 1.67187,0 0,13.59375 -1.67187,0 z m 10.62921,0 0,-1.45312 q -1.14063,1.67187 -3.125,1.67187 -0.85938,0 -1.625,-0.32812 -0.75,-0.34375 -1.125,-0.84375 -0.35938,-0.5 -0.51563,-1.23438 -0.0937,-0.5 -0.0937,-1.5625 l 0,-6.10937 1.67188,0 0,5.46875 q 0,1.3125 0.0937,1.76562 0.15625,0.65625 0.67187,1.03125 0.51563,0.375 1.26563,0.375 0.75,0 1.40625,-0.375 0.65625,-0.39062 0.92187,-1.04687 0.28125,-0.67188 0.28125,-1.9375 l 0,-5.28125 1.67188,0 0,9.85937 -1.5,0 z m 3.2507,-2.9375 1.65625,-0.26562 q 0.14063,1 0.76563,1.53125 0.64062,0.51562 1.78125,0.51562 1.15625,0 1.70312,-0.46875 0.5625,-0.46875 0.5625,-1.09375 0,-0.5625 -0.48437,-0.89062 -0.34375,-0.21875 -1.70313,-0.5625 -1.84375,-0.46875 -2.5625,-0.79688 -0.70312,-0.34375 -1.07812,-0.9375 -0.35938,-0.60937 -0.35938,-1.32812 0,-0.65625 0.29688,-1.21875 0.3125,-0.5625 0.82812,-0.9375 0.39063,-0.28125 1.0625,-0.48438 0.67188,-0.20312 1.4375,-0.20312 1.17188,0 2.04688,0.34375 0.875,0.32812 1.28125,0.90625 0.42187,0.5625 0.57812,1.51562 l -1.625,0.21875 q -0.10937,-0.75 -0.65625,-1.17187 -0.53125,-0.4375 -1.5,-0.4375 -1.15625,0 -1.64062,0.39062 -0.48438,0.375 -0.48438,0.875 0,0.32813 0.20313,0.59375 0.20312,0.26563 0.64062,0.4375 0.25,0.0937 1.46875,0.4375 1.76563,0.46875 2.46875,0.76563 0.70313,0.29687 1.09375,0.875 0.40625,0.57812 0.40625,1.4375 0,0.82812 -0.48437,1.57812 -0.48438,0.73438 -1.40625,1.14063 -0.92188,0.39062 -2.07813,0.39062 -1.92187,0 -2.9375,-0.79687 -1,-0.79688 -1.28125,-2.35938 z m 13.65625,1.4375 0.23438,1.48438 q -0.70313,0.14062 -1.26563,0.14062 -0.90625,0 -1.40625,-0.28125 -0.5,-0.29687 -0.70312,-0.75 -0.20313,-0.46875 -0.20313,-1.98437 l 0,-5.65625 -1.23437,0 0,-1.3125 1.23437,0 0,-2.4375 1.65625,-1 0,3.4375 1.6875,0 0,1.3125 -1.6875,0 0,5.75 q 0,0.71875 0.0781,0.92187 0.0937,0.20313 0.29687,0.32813 0.20313,0.125 0.57813,0.125 0.26562,0 0.73437,-0.0781 z m 8.27707,-1.67187 1.71875,0.21875 q -0.40625,1.5 -1.51562,2.34375 -1.09375,0.82812 -2.8125,0.82812 -2.15625,0 -3.42188,-1.32812 -1.26562,-1.32813 -1.26562,-3.73438 0,-2.48437 1.26562,-3.85937 1.28125,-1.375 3.32813,-1.375 1.98437,0 3.23437,1.34375 1.25,1.34375 1.25,3.79687 0,0.14063 -0.0156,0.4375 l -7.34375,0 q 0.0937,1.625 0.92187,2.48438 0.82813,0.85937 2.0625,0.85937 0.90625,0 1.54688,-0.46875 0.65625,-0.48437 1.04687,-1.54687 z m -5.48437,-2.70313 5.5,0 q -0.10938,-1.23437 -0.625,-1.85937 -0.79688,-0.96875 -2.07813,-0.96875 -1.14062,0 -1.9375,0.78125 -0.78125,0.76562 -0.85937,2.04687 z m 9.09445,5.875 0,-9.85937 1.5,0 0,1.5 q 0.57812,-1.04688 1.0625,-1.375 0.48437,-0.34375 1.07812,-0.34375 0.84375,0 1.71875,0.54687 l -0.57812,1.54688 q -0.60938,-0.35938 -1.23438,-0.35938 -0.54687,0 -0.98437,0.32813 -0.42188,0.32812 -0.60938,0.90625 -0.28125,0.89062 -0.28125,1.95312 l 0,5.15625 -1.67187,0 z m 10.16162,0.23438 3.9375,-14.0625 1.34375,0 -3.9375,14.0625 -1.34375,0 z m 21.53848,-5 1.79688,0.45312 q -0.5625,2.21875 -2.03125,3.39063 -1.46875,1.15625 -3.59375,1.15625 -2.20313,0 -3.57813,-0.89063 -1.375,-0.90625 -2.09375,-2.59375 -0.71875,-1.70312 -0.71875,-3.65625 0,-2.125 0.79688,-3.70312 0.8125,-1.57813 2.3125,-2.39063 1.5,-0.82812 3.29687,-0.82812 2.04688,0 3.4375,1.04687 1.39063,1.03125 1.9375,2.90625 l -1.76562,0.42188 q -0.46875,-1.48438 -1.375,-2.15625 -0.90625,-0.6875 -2.26563,-0.6875 -1.5625,0 -2.625,0.75 -1.04687,0.75 -1.48437,2.03125 -0.42188,1.26562 -0.42188,2.60937 0,1.73438 0.5,3.03125 0.51563,1.28125 1.57813,1.92188 1.07812,0.64062 2.3125,0.64062 1.51562,0 2.5625,-0.85937 1.04687,-0.875 1.42187,-2.59375 z m 3.51981,4.76562 0,-13.59375 1.67187,0 0,13.59375 -1.67187,0 z m 3.55108,-4.92187 q 0,-2.73438 1.53125,-4.0625 1.26563,-1.09375 3.09375,-1.09375 2.03125,0 3.3125,1.34375 1.29688,1.32812 1.29688,3.67187 0,1.90625 -0.57813,3 -0.5625,1.07813 -1.65625,1.6875 -1.07812,0.59375 -2.375,0.59375 -2.0625,0 -3.34375,-1.32812 -1.28125,-1.32813 -1.28125,-3.8125 z m 1.71875,0 q 0,1.89062 0.82813,2.82812 0.82812,0.9375 2.07812,0.9375 1.25,0 2.0625,-0.9375 0.82813,-0.95312 0.82813,-2.89062 0,-1.82813 -0.82813,-2.76563 -0.82812,-0.9375 -2.0625,-0.9375 -1.25,0 -2.07812,0.9375 -0.82813,0.9375 -0.82813,2.82813 z m 15.73508,4.92187 0,-1.45312 q -1.14062,1.67187 -3.125,1.67187 -0.85937,0 -1.625,-0.32812 -0.75,-0.34375 -1.125,-0.84375 -0.35937,-0.5 -0.51562,-1.23438 -0.0937,-0.5 -0.0937,-1.5625 l 0,-6.10937 1.67187,0 0,5.46875 q 0,1.3125 0.0937,1.76562 0.15625,0.65625 0.67188,1.03125 0.51562,0.375 1.26562,0.375 0.75,0 1.40625,-0.375 0.65625,-0.39062 0.92188,-1.04687 0.28125,-0.67188 0.28125,-1.9375 l 0,-5.28125 1.67187,0 0,9.85937 -1.5,0 z m 10.31323,0 0,-1.25 q -0.9375,1.46875 -2.75,1.46875 -1.17187,0 -2.17187,-0.64062 -0.98438,-0.65625 -1.53125,-1.8125 -0.53125,-1.17188 -0.53125,-2.6875 0,-1.46875 0.48437,-2.67188 0.5,-1.20312 1.46875,-1.84375 0.98438,-0.64062 2.20313,-0.64062 0.89062,0 1.57812,0.375 0.70313,0.375 1.14063,0.98437 l 0,-4.875 1.65625,0 0,13.59375 -1.54688,0 z m -5.28125,-4.92187 q 0,1.89062 0.79688,2.82812 0.8125,0.9375 1.89062,0.9375 1.09375,0 1.85938,-0.89062 0.76562,-0.89063 0.76562,-2.73438 0,-2.01562 -0.78125,-2.95312 -0.78125,-0.95313 -1.92187,-0.95313 -1.10938,0 -1.85938,0.90625 -0.75,0.90625 -0.75,2.85938 z m 13.19965,5.15625 3.93747,-14.0625 1.34375,0 -3.93747,14.0625 -1.34375,0 z m 11.22598,-4.60938 1.6875,-0.14062 q 0.125,1.01562 0.5625,1.67187 0.4375,0.65625 1.35938,1.0625 0.9375,0.40625 2.09375,0.40625 1.03125,0 1.8125,-0.3125 0.79687,-0.3125 1.1875,-0.84375 0.39062,-0.53125 0.39062,-1.15625 0,-0.64062 -0.375,-1.10937 -0.375,-0.48438 -1.23437,-0.8125 -0.54688,-0.21875 -2.42188,-0.65625 -1.875,-0.45313 -2.625,-0.85938 -0.96875,-0.51562 -1.45312,-1.26562 -0.46875,-0.75 -0.46875,-1.6875 0,-1.03125 0.57812,-1.92188 0.59375,-0.90625 1.70313,-1.35937 1.125,-0.46875 2.5,-0.46875 1.51562,0 2.67187,0.48437 1.15625,0.48438 1.76563,1.4375 0.625,0.9375 0.67187,2.14063 l -1.71875,0.125 q -0.14062,-1.28125 -0.95312,-1.9375 -0.79688,-0.67188 -2.35938,-0.67188 -1.625,0 -2.375,0.60938 -0.75,0.59375 -0.75,1.4375 0,0.73437 0.53125,1.20312 0.51563,0.46875 2.70313,0.96875 2.20312,0.5 3.01562,0.875 1.1875,0.54688 1.75,1.39063 0.57813,0.82812 0.57813,1.92187 0,1.09375 -0.625,2.0625 -0.625,0.95313 -1.79688,1.48438 -1.15625,0.53125 -2.60937,0.53125 -1.84375,0 -3.09375,-0.53125 -1.25,-0.54688 -1.96875,-1.625 -0.70313,-1.07813 -0.73438,-2.45313 z m 12.84979,-7.3125 0,-1.90625 1.67188,0 0,1.90625 -1.67188,0 z m 0,11.6875 0,-9.85937 1.67188,0 0,9.85937 -1.67188,0 z m 4.12922,0 0,-9.85937 1.5,0 0,1.40625 q 1.09375,-1.625 3.14062,-1.625 0.89063,0 1.64063,0.32812 0.75,0.3125 1.10937,0.84375 0.375,0.51563 0.53125,1.21875 0.0937,0.46875 0.0937,1.625 l 0,6.0625 -1.67187,0 0,-6 q 0,-1.01562 -0.20313,-1.51562 -0.1875,-0.51563 -0.6875,-0.8125 -0.5,-0.29688 -1.17187,-0.29688 -1.0625,0 -1.84375,0.67188 -0.76563,0.67187 -0.76563,2.57812 l 0,5.375 -1.67187,0 z m 10.07885,0.8125 1.60938,0.25 q 0.10937,0.75 0.57812,1.09375 0.60938,0.45313 1.6875,0.45313 1.17188,0 1.79688,-0.46875 0.625,-0.45313 0.85937,-1.28125 0.125,-0.51563 0.10938,-2.15625 -1.09375,1.29687 -2.71875,1.29687 -2.03125,0 -3.15625,-1.46875 -1.10938,-1.46875 -1.10938,-3.51562 0,-1.40625 0.51563,-2.59375 0.51562,-1.20313 1.48437,-1.84375 0.96875,-0.65625 2.26563,-0.65625 1.75,0 2.875,1.40625 l 0,-1.1875 1.54687,0 0,8.51562 q 0,2.3125 -0.46875,3.26563 -0.46875,0.96875 -1.48437,1.51562 -1.01563,0.5625 -2.5,0.5625 -1.76563,0 -2.85938,-0.79687 -1.07812,-0.79688 -1.03125,-2.39063 z m 1.375,-5.92187 q 0,1.95312 0.76563,2.84375 0.78125,0.89062 1.9375,0.89062 1.14062,0 1.92187,-0.89062 0.78125,-0.89063 0.78125,-2.78125 0,-1.8125 -0.8125,-2.71875 -0.79687,-0.92188 -1.92187,-0.92188 -1.10938,0 -1.89063,0.90625 -0.78125,0.89063 -0.78125,2.67188 z m 9.26636,5.10937 0,-13.59375 1.67188,0 0,13.59375 -1.67188,0 z m 10.92603,-3.17187 1.71875,0.21875 q -0.40625,1.5 -1.51563,2.34375 -1.09375,0.82812 -2.8125,0.82812 -2.15625,0 -3.42187,-1.32812 -1.26563,-1.32813 -1.26563,-3.73438 0,-2.48437 1.26563,-3.85937 1.28125,-1.375 3.32812,-1.375 1.98438,0 3.23438,1.34375 1.25,1.34375 1.25,3.79687 0,0.14063 -0.0156,0.4375 l -7.34375,0 q 0.0937,1.625 0.92188,2.48438 0.82812,0.85937 2.0625,0.85937 0.90625,0 1.54687,-0.46875 0.65625,-0.48437 1.04688,-1.54687 z m -5.48438,-2.70313 5.5,0 q -0.10937,-1.23437 -0.625,-1.85937 -0.79687,-0.96875 -2.07812,-0.96875 -1.14063,0 -1.9375,0.78125 -0.78125,0.76562 -0.85938,2.04687 z m 14.49652,5.875 0,-13.59375 1.84375,0 7.14063,10.67188 0,-10.67188 1.71875,0 0,13.59375 -1.84375,0 -7.14063,-10.6875 0,10.6875 -1.71875,0 z m 12.64484,-4.92187 q 0,-2.73438 1.53125,-4.0625 1.26562,-1.09375 3.09375,-1.09375 2.03125,0 3.3125,1.34375 1.29687,1.32812 1.29687,3.67187 0,1.90625 -0.57812,3 -0.5625,1.07813 -1.65625,1.6875 -1.07813,0.59375 -2.375,0.59375 -2.0625,0 -3.34375,-1.32812 -1.28125,-1.32813 -1.28125,-3.8125 z m 1.71875,0 q 0,1.89062 0.82812,2.82812 0.82813,0.9375 2.07813,0.9375 1.25,0 2.0625,-0.9375 0.82812,-0.95312 0.82812,-2.89062 0,-1.82813 -0.82812,-2.76563 -0.82813,-0.9375 -2.0625,-0.9375 -1.25,0 -2.07813,0.9375 -0.82812,0.9375 -0.82812,2.82813 z m 15.6726,4.92187 0,-1.25 q -0.9375,1.46875 -2.75,1.46875 -1.17187,0 -2.17187,-0.64062 -0.98438,-0.65625 -1.53125,-1.8125 -0.53125,-1.17188 -0.53125,-2.6875 0,-1.46875 0.48437,-2.67188 0.5,-1.20312 1.46875,-1.84375 0.98438,-0.64062 2.20313,-0.64062 0.89062,0 1.57812,0.375 0.70313,0.375 1.14063,0.98437 l 0,-4.875 1.65625,0 0,13.59375 -1.54688,0 z m -5.28125,-4.92187 q 0,1.89062 0.79688,2.82812 0.8125,0.9375 1.89062,0.9375 1.09375,0 1.85938,-0.89062 0.76562,-0.89063 0.76562,-2.73438 0,-2.01562 -0.78125,-2.95312 -0.78125,-0.95313 -1.92187,-0.95313 -1.10938,0 -1.85938,0.90625 -0.75,0.90625 -0.75,2.85938 z m 16.01636,1.75 1.71875,0.21875 q -0.40625,1.5 -1.51562,2.34375 -1.09375,0.82812 -2.8125,0.82812 -2.15625,0 -3.42188,-1.32812 -1.26562,-1.32813 -1.26562,-3.73438 0,-2.48437 1.26562,-3.85937 1.28125,-1.375 3.32813,-1.375 1.98437,0 3.23437,1.34375 1.25,1.34375 1.25,3.79687 0,0.14063 -0.0156,0.4375 l -7.34375,0 q 0.0937,1.625 0.92187,2.48438 0.82813,0.85937 2.0625,0.85937 0.90625,0 1.54688,-0.46875 0.65625,-0.48437 1.04687,-1.54687 z m -5.48437,-2.70313 5.5,0 q -0.10938,-1.23437 -0.625,-1.85937 -0.79688,-0.96875 -2.07813,-0.96875 -1.14062,0 -1.9375,0.78125 -0.78125,0.76562 -0.85937,2.04687 z m 10.20385,9.875 -1.1875,0 q 2.76563,-4.45312 2.76563,-8.92187 0,-1.73438 -0.39063,-3.45313 -0.32812,-1.39062 -0.89062,-2.67187 -0.35938,-0.84375 -1.48438,-2.78125 l 1.1875,0 q 1.75,2.32812 2.57813,4.67187 0.71875,2.01563 0.71875,4.23438 0,2.5 -0.96875,4.84375 -0.95313,2.32812 -2.32813,4.07812 z" />
  <path
     style="fill:#e4f5e3;fill-rule:nonzero"
     inkscape:connector-curvature="0"
     id="path57"
     d="m 0.5,53.8307 208.47241,0 0,46.01575 -208.47241,0 z" />
  <path
     style="stroke:#40a13b;stroke-width:1;stroke-linecap:butt;stroke-linejoin:round"
     inkscape:connector-curvature="0"
     id="path59"
     d="m 0.5,53.8307 208.47241,0 0,46.01575 -208.47241,0 z" />
  <path
     style="fill:#033300;fill-rule:nonzero"
     inkscape:connector-curvature="0"
     id="path61"
     d="m 10.35937,79.3836 1.6875,-0.14063 q 0.125,1.01563 0.5625,1.67188 0.4375,0.65625 1.35938,1.0625 0.9375,0.40625 2.09375,0.40625 1.03125,0 1.8125,-0.3125 0.79687,-0.3125 1.1875,-0.84375 0.39062,-0.53125 0.39062,-1.15625 0,-0.64063 -0.375,-1.10938 -0.375,-0.48437 -1.23437,-0.8125 -0.54688,-0.21875 -2.42188,-0.65625 -1.875,-0.45312 -2.625,-0.85937 -0.96875,-0.51563 -1.45312,-1.26563 -0.46875,-0.75 -0.46875,-1.6875 0,-1.03125 0.57812,-1.92187 0.59375,-0.90625 1.70313,-1.35938 1.125,-0.46875 2.5,-0.46875 1.51562,0 2.67187,0.48438 1.15625,0.48437 1.76563,1.4375 0.625,0.9375 0.67187,2.14062 l -1.71875,0.125 q -0.14062,-1.28125 -0.95312,-1.9375 -0.79688,-0.67187 -2.35938,-0.67187 -1.625,0 -2.375,0.60937 -0.75,0.59375 -0.75,1.4375 0,0.73438 0.53125,1.20313 0.51563,0.46875 2.70313,0.96875 2.20312,0.5 3.01562,0.875 1.1875,0.54687 1.75,1.39062 0.57813,0.82813 0.57813,1.92188 0,1.09375 -0.625,2.0625 -0.625,0.95312 -1.79688,1.48437 -1.15625,0.53125 -2.60937,0.53125 -1.84375,0 -3.09375,-0.53125 -1.25,-0.54687 -1.96875,-1.625 -0.70313,-1.07812 -0.73438,-2.45312 z m 12.8342,8.15625 0,-13.64063 1.53125,0 0,1.28125 q 0.53125,-0.75 1.20312,-1.125 0.6875,-0.375 1.64063,-0.375 1.26562,0 2.23437,0.65625 0.96875,0.64063 1.45313,1.82813 0.5,1.1875 0.5,2.59375 0,1.51562 -0.54688,2.73437 -0.54687,1.20313 -1.57812,1.84375 -1.03125,0.64063 -2.17188,0.64063 -0.84375,0 -1.51562,-0.34375 -0.65625,-0.35938 -1.07813,-0.89063 l 0,4.79688 -1.67187,0 z m 1.51562,-8.65625 q 0,1.90625 0.76563,2.8125 0.78125,0.90625 1.875,0.90625 1.10937,0 1.89062,-0.9375 0.79688,-0.9375 0.79688,-2.92188 0,-1.875 -0.78125,-2.8125 -0.76563,-0.9375 -1.84375,-0.9375 -1.0625,0 -1.89063,1 -0.8125,1 -0.8125,2.89063 z m 15.29758,3.65625 q -0.9375,0.79687 -1.79687,1.125 -0.85938,0.3125 -1.84375,0.3125 -1.60938,0 -2.48438,-0.78125 -0.875,-0.79688 -0.875,-2.03125 0,-0.73438 0.32813,-1.32813 0.32812,-0.59375 0.85937,-0.95312 0.53125,-0.35938 1.20313,-0.54688 0.5,-0.14062 1.48437,-0.25 2.03125,-0.25 2.98438,-0.57812 0,-0.34375 0,-0.4375 0,-1.01563 -0.46875,-1.4375 -0.64063,-0.5625 -1.90625,-0.5625 -1.17188,0 -1.73438,0.40625 -0.5625,0.40625 -0.82812,1.46875 l -1.64063,-0.23438 q 0.23438,-1.04687 0.73438,-1.6875 0.51562,-0.64062 1.46875,-0.98437 0.96875,-0.35938 2.25,-0.35938 1.26562,0 2.04687,0.29688 0.78125,0.29687 1.15625,0.75 0.375,0.45312 0.51563,1.14062 0.0937,0.42188 0.0937,1.53125 l 0,2.23438 q 0,2.32812 0.0937,2.95312 0.10937,0.60938 0.4375,1.17188 l -1.75,0 Q 40.06917,83.24297 40.00667,82.53985 z M 39.86615,78.8211 q -0.90625,0.35937 -2.73438,0.625 -1.03125,0.14062 -1.45312,0.32812 -0.42188,0.1875 -0.65625,0.54688 -0.23438,0.35937 -0.23438,0.79687 0,0.67188 0.5,1.125 0.51563,0.4375 1.48438,0.4375 0.96875,0 1.71875,-0.42187 0.75,-0.4375 1.10937,-1.15625 0.26563,-0.57813 0.26563,-1.67188 l 0,-0.60937 z m 4.06323,4.9375 0,-9.85938 1.5,0 0,1.5 q 0.57812,-1.04687 1.0625,-1.375 0.48437,-0.34375 1.07812,-0.34375 0.84375,0 1.71875,0.54688 l -0.57812,1.54687 q -0.60938,-0.35937 -1.23438,-0.35937 -0.54687,0 -0.98437,0.32812 -0.42188,0.32813 -0.60938,0.90625 -0.28125,0.89063 -0.28125,1.95313 l 0,5.15625 -1.67187,0 z m 6.24392,0 0,-13.59375 1.67188,0 0,7.75 3.95312,-4.01563 2.15625,0 -3.76562,3.65625 4.14062,6.20313 -2.0625,0 -3.25,-5.03125 -1.17187,1.125 0,3.90625 -1.67188,0 z m 17.68329,4 q -1.375,-1.75 -2.32812,-4.07813 -0.95313,-2.34375 -0.95313,-4.84375 0,-2.21875 0.70313,-4.23437 0.84375,-2.34375 2.57812,-4.67188 l 1.20313,0 q -1.125,1.92188 -1.48438,2.75 -0.5625,1.28125 -0.89062,2.67188 -0.40625,1.73437 -0.40625,3.48437 0,4.46875 2.78125,8.92188 l -1.20313,0 z m 2.63456,-8.375 1.6875,-0.14063 q 0.125,1.01563 0.5625,1.67188 0.4375,0.65625 1.35937,1.0625 0.9375,0.40625 2.09375,0.40625 1.03125,0 1.8125,-0.3125 0.79688,-0.3125 1.1875,-0.84375 0.39063,-0.53125 0.39063,-1.15625 0,-0.64063 -0.375,-1.10938 -0.375,-0.48437 -1.23438,-0.8125 -0.54687,-0.21875 -2.42187,-0.65625 -1.875,-0.45312 -2.625,-0.85937 -0.96875,-0.51563 -1.45313,-1.26563 -0.46875,-0.75 -0.46875,-1.6875 0,-1.03125 0.57813,-1.92187 0.59375,-0.90625 1.70312,-1.35938 1.125,-0.46875 2.5,-0.46875 1.51563,0 2.67188,0.48438 1.15625,0.48437 1.76562,1.4375 0.625,0.9375 0.67188,2.14062 l -1.71875,0.125 q -0.14063,-1.28125 -0.95313,-1.9375 -0.79687,-0.67187 -2.35937,-0.67187 -1.625,0 -2.375,0.60937 -0.75,0.59375 -0.75,1.4375 0,0.73438 0.53125,1.20313 0.51562,0.46875 2.70312,0.96875 2.20313,0.5 3.01563,0.875 1.1875,0.54687 1.75,1.39062 0.57812,0.82813 0.57812,1.92188 0,1.09375 -0.625,2.0625 -0.625,0.95312 -1.79687,1.48437 -1.15625,0.53125 -2.60938,0.53125 -1.84375,0 -3.09375,-0.53125 -1.25,-0.54687 -1.96875,-1.625 Q 70.5224,80.7586 70.49115,79.3836 z m 21.97482,-9.21875 1.79687,0 0,7.84375 q 0,2.0625 -0.46875,3.26562 -0.45312,1.20313 -1.67187,1.96875 -1.20313,0.75 -3.17188,0.75 -1.90625,0 -3.125,-0.65625 -1.21875,-0.65625 -1.73437,-1.90625 -0.51563,-1.25 -0.51563,-3.42187 l 0,-7.84375 1.79688,0 0,7.84375 q 0,1.76562 0.32812,2.60937 0.32813,0.84375 1.125,1.29688 0.8125,0.45312 1.96875,0.45312 1.98438,0 2.82813,-0.89062 0.84375,-0.90625 0.84375,-3.46875 l 0,-7.84375 z m 8.00421,13.59375 0,-12 -4.46875,0 0,-1.59375 10.76562,0 0,1.59375 -4.5,0 0,12 -1.79687,0 z m 8.81784,4 -1.1875,0 q 2.76563,-4.45313 2.76563,-8.92188 0,-1.73437 -0.39063,-3.45312 -0.32812,-1.39063 -0.89062,-2.67188 -0.35938,-0.84375 -1.48438,-2.78125 l 1.1875,0 q 1.75,2.32813 2.57813,4.67188 0.71875,2.01562 0.71875,4.23437 0,2.5 -0.96875,4.84375 -0.95313,2.32813 -2.32813,4.07813 z" />
  <path
     style="fill:#8ad386;fill-rule:nonzero"
     inkscape:connector-curvature="0"
     id="path63"
     d="m 126.67855,59.1378 78.74014,0 0,35.40158 -78.74014,0 z" />
  <path
     style="stroke:#40a13b;stroke-width:1;stroke-linecap:butt;stroke-linejoin:round;stroke-dasharray:1, 3"
     inkscape:connector-curvature="0"
     id="path65"
     d="m 126.67855,59.1378 78.74014,0 0,35.40158 -78.74014,0 z" />
  <path
     style="fill:#033300;fill-rule:nonzero"
     inkscape:connector-curvature="0"
     id="path67"
     d="m 150.25637,78.99296 1.79687,0.45312 q -0.5625,2.21875 -2.03125,3.39063 -1.46875,1.15625 -3.59375,1.15625 -2.20312,0 -3.57812,-0.89063 -1.375,-0.90625 -2.09375,-2.59375 -0.71875,-1.70312 -0.71875,-3.65625 0,-2.125 0.79687,-3.70312 0.8125,-1.57813 2.3125,-2.39063 1.5,-0.82812 3.29688,-0.82812 2.04687,0 3.4375,1.04687 1.39062,1.03125 1.9375,2.90625 l -1.76563,0.42188 q -0.46875,-1.48438 -1.375,-2.15625 -0.90625,-0.6875 -2.26562,-0.6875 -1.5625,0 -2.625,0.75 -1.04688,0.75 -1.48438,2.03125 -0.42187,1.26562 -0.42187,2.60937 0,1.73438 0.5,3.03125 0.51562,1.28125 1.57812,1.92188 1.07813,0.64062 2.3125,0.64062 1.51563,0 2.5625,-0.85937 1.04688,-0.875 1.42188,-2.59375 z m 2.92609,-0.15625 q 0,-2.73438 1.53125,-4.0625 1.26562,-1.09375 3.09375,-1.09375 2.03125,0 3.3125,1.34375 1.29687,1.32812 1.29687,3.67187 0,1.90625 -0.57812,3 -0.5625,1.07813 -1.65625,1.6875 -1.07813,0.59375 -2.375,0.59375 -2.0625,0 -3.34375,-1.32812 -1.28125,-1.32813 -1.28125,-3.8125 z m 1.71875,0 q 0,1.89062 0.82812,2.82812 0.82813,0.9375 2.07813,0.9375 1.25,0 2.0625,-0.9375 0.82812,-0.95312 0.82812,-2.89062 0,-1.82813 -0.82812,-2.76563 -0.82813,-0.9375 -2.0625,-0.9375 -1.25,0 -2.07813,0.9375 -0.82812,0.9375 -0.82812,2.82813 z m 9.28195,4.92187 0,-9.85937 1.5,0 0,1.40625 q 1.09375,-1.625 3.14062,-1.625 0.89063,0 1.64063,0.32812 0.75,0.3125 1.10937,0.84375 0.375,0.51563 0.53125,1.21875 0.0937,0.46875 0.0937,1.625 l 0,6.0625 -1.67187,0 0,-6 q 0,-1.01562 -0.20313,-1.51562 -0.1875,-0.51563 -0.6875,-0.8125 -0.5,-0.29688 -1.17187,-0.29688 -1.0625,0 -1.84375,0.67188 -0.76563,0.67187 -0.76563,2.57812 l 0,5.375 -1.67187,0 z m 10.78198,0 0,-8.54687 -1.48437,0 0,-1.3125 1.48437,0 0,-1.04688 q 0,-0.98437 0.17188,-1.46875 0.23437,-0.65625 0.84375,-1.04687 0.60937,-0.40625 1.70312,-0.40625 0.70313,0 1.5625,0.15625 l -0.25,1.46875 q -0.51562,-0.0937 -0.98437,-0.0937 -0.76563,0 -1.07813,0.32812 -0.3125,0.3125 -0.3125,1.20313 l 0,0.90625 1.92188,0 0,1.3125 -1.92188,0 0,8.54687 -1.65625,0 z m 4.79266,-11.6875 0,-1.90625 1.67188,0 0,1.90625 -1.67188,0 z m 0,11.6875 0,-9.85937 1.67188,0 0,9.85937 -1.67188,0 z m 3.83234,0.8125 1.60938,0.25 q 0.10937,0.75 0.57812,1.09375 0.60938,0.45313 1.6875,0.45313 1.17188,0 1.79688,-0.46875 0.625,-0.45313 0.85937,-1.28125 0.125,-0.51563 0.10938,-2.15625 -1.09375,1.29687 -2.71875,1.29687 -2.03125,0 -3.15625,-1.46875 -1.10938,-1.46875 -1.10938,-3.51562 0,-1.40625 0.51563,-2.59375 0.51562,-1.20313 1.48437,-1.84375 0.96875,-0.65625 2.26563,-0.65625 1.75,0 2.875,1.40625 l 0,-1.1875 1.54687,0 0,8.51562 q 0,2.3125 -0.46875,3.26563 -0.46875,0.96875 -1.48437,1.51562 -1.01563,0.5625 -2.5,0.5625 -1.76563,0 -2.85938,-0.79687 -1.07812,-0.79688 -1.03125,-2.39063 z m 1.375,-5.92187 q 0,1.95312 0.76563,2.84375 0.78125,0.89062 1.9375,0.89062 1.14062,0 1.92187,-0.89062 0.78125,-0.89063 0.78125,-2.78125 0,-1.8125 -0.8125,-2.71875 -0.79687,-0.92188 -1.92187,-0.92188 -1.10938,0 -1.89063,0.90625 -0.78125,0.89063 -0.78125,2.67188 z" />
  <path
     style="fill:#e4f5e3;fill-rule:nonzero"
     inkscape:connector-curvature="0"
     id="path69"
     d="m 0.5,0.5 208.47241,0 0,46.01576 -208.47241,0 z" />
  <path
     style="stroke:#40a13b;stroke-width:1;stroke-linecap:butt;stroke-linejoin:round"
     inkscape:connector-curvature="0"
     id="path71"
     d="m 0.5,0.5 208.47241,0 0,46.01576 -208.47241,0 z" />
  <path
     style="fill:#033300;fill-rule:nonzero"
     inkscape:connector-curvature="0"
     id="path73"
     d="m 10.35937,26.05287 1.6875,-0.14063 q 0.125,1.01563 0.5625,1.67188 0.4375,0.65625 1.35938,1.0625 0.9375,0.40625 2.09375,0.40625 1.03125,0 1.8125,-0.3125 0.79687,-0.3125 1.1875,-0.84375 0.39062,-0.53125 0.39062,-1.15625 0,-0.64063 -0.375,-1.10938 -0.375,-0.48437 -1.23437,-0.8125 -0.54688,-0.21875 -2.42188,-0.65625 -1.875,-0.45312 -2.625,-0.85937 -0.96875,-0.51563 -1.45312,-1.26563 -0.46875,-0.75 -0.46875,-1.6875 0,-1.03125 0.57812,-1.92187 0.59375,-0.90625 1.70313,-1.35938 1.125,-0.46875 2.5,-0.46875 1.51562,0 2.67187,0.48438 1.15625,0.48437 1.76563,1.4375 0.625,0.9375 0.67187,2.14062 l -1.71875,0.125 q -0.14062,-1.28125 -0.95312,-1.9375 -0.79688,-0.67187 -2.35938,-0.67187 -1.625,0 -2.375,0.60937 -0.75,0.59375 -0.75,1.4375 0,0.73438 0.53125,1.20313 0.51563,0.46875 2.70313,0.96875 2.20312,0.5 3.01562,0.875 1.1875,0.54687 1.75,1.39062 0.57813,0.82813 0.57813,1.92188 0,1.09375 -0.625,2.0625 -0.625,0.95312 -1.79688,1.48437 -1.15625,0.53125 -2.60937,0.53125 -1.84375,0 -3.09375,-0.53125 -1.25,-0.54687 -1.96875,-1.625 -0.70313,-1.07812 -0.73438,-2.45312 z m 12.8342,8.15625 0,-13.64063 1.53125,0 0,1.28125 q 0.53125,-0.75 1.20312,-1.125 0.6875,-0.375 1.64063,-0.375 1.26562,0 2.23437,0.65625 0.96875,0.64063 1.45313,1.82813 0.5,1.1875 0.5,2.59375 0,1.51562 -0.54688,2.73437 -0.54687,1.20313 -1.57812,1.84375 -1.03125,0.64063 -2.17188,0.64063 -0.84375,0 -1.51562,-0.34375 -0.65625,-0.35938 -1.07813,-0.89063 l 0,4.79688 -1.67187,0 z m 1.51562,-8.65625 q 0,1.90625 0.76563,2.8125 0.78125,0.90625 1.875,0.90625 1.10937,0 1.89062,-0.9375 0.79688,-0.9375 0.79688,-2.92188 0,-1.875 -0.78125,-2.8125 -0.76563,-0.9375 -1.84375,-0.9375 -1.0625,0 -1.89063,1 -0.8125,1 -0.8125,2.89063 z m 15.29758,3.65625 q -0.9375,0.79687 -1.79687,1.125 -0.85938,0.3125 -1.84375,0.3125 -1.60938,0 -2.48438,-0.78125 -0.875,-0.79688 -0.875,-2.03125 0,-0.73438 0.32813,-1.32813 0.32812,-0.59375 0.85937,-0.95312 0.53125,-0.35938 1.20313,-0.54688 0.5,-0.14062 1.48437,-0.25 2.03125,-0.25 2.98438,-0.57812 0,-0.34375 0,-0.4375 0,-1.01563 -0.46875,-1.4375 -0.64063,-0.5625 -1.90625,-0.5625 -1.17188,0 -1.73438,0.40625 -0.5625,0.40625 -0.82812,1.46875 l -1.64063,-0.23438 q 0.23438,-1.04687 0.73438,-1.6875 0.51562,-0.64062 1.46875,-0.98437 0.96875,-0.35938 2.25,-0.35938 1.26562,0 2.04687,0.29688 0.78125,0.29687 1.15625,0.75 0.375,0.45312 0.51563,1.14062 0.0937,0.42188 0.0937,1.53125 l 0,2.23438 q 0,2.32812 0.0937,2.95312 0.10937,0.60938 0.4375,1.17188 l -1.75,0 q -0.26563,-0.51563 -0.32813,-1.21875 z m -0.14062,-3.71875 q -0.90625,0.35937 -2.73438,0.625 -1.03125,0.14062 -1.45312,0.32812 -0.42188,0.1875 -0.65625,0.54688 -0.23438,0.35937 -0.23438,0.79687 0,0.67188 0.5,1.125 0.51563,0.4375 1.48438,0.4375 0.96875,0 1.71875,-0.42187 0.75,-0.4375 1.10937,-1.15625 0.26563,-0.57813 0.26563,-1.67188 l 0,-0.60937 z m 4.06323,4.9375 0,-9.85938 1.5,0 0,1.5 q 0.57812,-1.04687 1.0625,-1.375 0.48437,-0.34375 1.07812,-0.34375 0.84375,0 1.71875,0.54688 l -0.57812,1.54687 q -0.60938,-0.35937 -1.23438,-0.35937 -0.54687,0 -0.98437,0.32812 -0.42188,0.32813 -0.60938,0.90625 -0.28125,0.89063 -0.28125,1.95313 l 0,5.15625 -1.67187,0 z m 6.24392,0 0,-13.59375 1.67188,0 0,7.75 3.95312,-4.01563 2.15625,0 -3.76562,3.65625 4.14062,6.20313 -2.0625,0 -3.25,-5.03125 -1.17187,1.125 0,3.90625 -1.67188,0 z m 11.90625,0 -3.60937,-13.59375 1.84375,0 2.0625,8.90625 q 0.34375,1.40625 0.57812,2.78125 0.51563,-2.17188 0.60938,-2.51563 l 2.59375,-9.17187 2.17187,0 1.95313,6.875 q 0.73437,2.5625 1.04687,4.8125 0.26563,-1.28125 0.6875,-2.95313 l 2.125,-8.73437 1.8125,0 -3.73437,13.59375 -1.73438,0 -2.85937,-10.35938 q -0.35938,-1.29687 -0.42188,-1.59375 -0.21875,0.9375 -0.40625,1.59375 l -2.89062,10.35938 -1.82813,0 z m 24.93677,-4.76563 1.79688,0.45313 q -0.5625,2.21875 -2.03125,3.39062 -1.46875,1.15625 -3.59375,1.15625 -2.20313,0 -3.57813,-0.89062 -1.375,-0.90625 -2.09375,-2.59375 -0.71875,-1.70313 -0.71875,-3.65625 0,-2.125 0.79688,-3.70313 0.8125,-1.57812 2.3125,-2.39062 1.5,-0.82813 3.29687,-0.82813 2.04688,0 3.4375,1.04688 1.39063,1.03125 1.9375,2.90625 l -1.76562,0.42187 q -0.46875,-1.48437 -1.375,-2.15625 -0.90625,-0.6875 -2.26563,-0.6875 -1.5625,0 -2.625,0.75 -1.04687,0.75 -1.48437,2.03125 -0.42188,1.26563 -0.42188,2.60938 0,1.73437 0.5,3.03125 0.51563,1.28125 1.57813,1.92187 1.07812,0.64063 2.3125,0.64063 1.51562,0 2.5625,-0.85938 1.04687,-0.875 1.42187,-2.59375 z" />
  <path
     style="fill:#8ad386;fill-rule:nonzero"
     inkscape:connector-curvature="0"
     id="path75"
     d="m 126.67855,5.80708 78.74014,0 0,35.40158 -78.74014,0 z" />
  <path
     style="stroke:#40a13b;stroke-width:1;stroke-linecap:butt;stroke-linejoin:round;stroke-dasharray:1, 3"
     inkscape:connector-curvature="0"
     id="path77"
     d="m 126.67855,5.80708 78.74014,0 0,35.40158 -78.74014,0 z" />
  <path
     style="fill:#033300;fill-rule:nonzero"
     inkscape:connector-curvature="0"
     id="path79"
     d="m 140.04312,30.42787 0,-13.59375 5.125,0 q 1.35937,0 2.07812,0.125 1,0.17187 1.67188,0.64062 0.67187,0.46875 1.07812,1.3125 0.42188,0.84375 0.42188,1.84375 0,1.73438 -1.10938,2.9375 -1.09375,1.20313 -3.98437,1.20313 l -3.48438,0 0,5.53125 -1.79687,0 z m 1.79687,-7.14063 3.51563,0 q 1.75,0 2.46875,-0.64062 0.73437,-0.65625 0.73437,-1.82813 0,-0.85937 -0.4375,-1.46875 -0.42187,-0.60937 -1.125,-0.79687 -0.45312,-0.125 -1.67187,-0.125 l -3.48438,0 0,4.85937 z m 16.86545,5.92188 q -0.9375,0.79687 -1.79687,1.125 -0.85938,0.3125 -1.84375,0.3125 -1.60938,0 -2.48438,-0.78125 -0.875,-0.79688 -0.875,-2.03125 0,-0.73438 0.32813,-1.32813 0.32812,-0.59375 0.85937,-0.95312 0.53125,-0.35938 1.20313,-0.54688 0.5,-0.14062 1.48437,-0.25 2.03125,-0.25 2.98438,-0.57812 0,-0.34375 0,-0.4375 0,-1.01563 -0.46875,-1.4375 -0.64063,-0.5625 -1.90625,-0.5625 -1.17188,0 -1.73438,0.40625 -0.5625,0.40625 -0.82812,1.46875 l -1.64063,-0.23438 q 0.23438,-1.04687 0.73438,-1.6875 0.51562,-0.64062 1.46875,-0.98437 0.96875,-0.35938 2.25,-0.35938 1.26562,0 2.04687,0.29688 0.78125,0.29687 1.15625,0.75 0.375,0.45312 0.51563,1.14062 0.0937,0.42188 0.0937,1.53125 l 0,2.23438 q 0,2.32812 0.0937,2.95312 0.10937,0.60938 0.4375,1.17188 l -1.75,0 q -0.26563,-0.51563 -0.32813,-1.21875 z m -0.14062,-3.71875 q -0.90625,0.35937 -2.73438,0.625 -1.03125,0.14062 -1.45312,0.32812 -0.42188,0.1875 -0.65625,0.54688 -0.23438,0.35937 -0.23438,0.79687 0,0.67188 0.5,1.125 0.51563,0.4375 1.48438,0.4375 0.96875,0 1.71875,-0.42187 0.75,-0.4375 1.10937,-1.15625 0.26563,-0.57813 0.26563,-1.67188 l 0,-0.60937 z m 4.06323,4.9375 0,-9.85938 1.5,0 0,1.5 q 0.57813,-1.04687 1.0625,-1.375 0.48438,-0.34375 1.07813,-0.34375 0.84375,0 1.71875,0.54688 l -0.57813,1.54687 q -0.60937,-0.35937 -1.23437,-0.35937 -0.54688,0 -0.98438,0.32812 -0.42187,0.32813 -0.60937,0.90625 -0.28125,0.89063 -0.28125,1.95313 l 0,5.15625 -1.67188,0 z m 12.6658,-1.21875 q -0.9375,0.79687 -1.79687,1.125 -0.85938,0.3125 -1.84375,0.3125 -1.60938,0 -2.48438,-0.78125 -0.875,-0.79688 -0.875,-2.03125 0,-0.73438 0.32813,-1.32813 0.32812,-0.59375 0.85937,-0.95312 0.53125,-0.35938 1.20313,-0.54688 0.5,-0.14062 1.48437,-0.25 2.03125,-0.25 2.98438,-0.57812 0,-0.34375 0,-0.4375 0,-1.01563 -0.46875,-1.4375 -0.64063,-0.5625 -1.90625,-0.5625 -1.17188,0 -1.73438,0.40625 -0.5625,0.40625 -0.82812,1.46875 l -1.64063,-0.23438 q 0.23438,-1.04687 0.73438,-1.6875 0.51562,-0.64062 1.46875,-0.98437 0.96875,-0.35938 2.25,-0.35938 1.26562,0 2.04687,0.29688 0.78125,0.29687 1.15625,0.75 0.375,0.45312 0.51563,1.14062 0.0937,0.42188 0.0937,1.53125 l 0,2.23438 q 0,2.32812 0.0937,2.95312 0.10937,0.60938 0.4375,1.17188 l -1.75,0 q -0.26563,-0.51563 -0.32813,-1.21875 z m -0.14062,-3.71875 q -0.90625,0.35937 -2.73438,0.625 -1.03125,0.14062 -1.45312,0.32812 -0.42188,0.1875 -0.65625,0.54688 -0.23438,0.35937 -0.23438,0.79687 0,0.67188 0.5,1.125 0.51563,0.4375 1.48438,0.4375 0.96875,0 1.71875,-0.42187 0.75,-0.4375 1.10937,-1.15625 0.26563,-0.57813 0.26563,-1.67188 l 0,-0.60937 z m 4.07882,4.9375 0,-9.85938 1.5,0 0,1.39063 q 0.45313,-0.71875 1.21875,-1.15625 0.78125,-0.45313 1.76563,-0.45313 1.09375,0 1.79687,0.45313 0.70313,0.45312 0.98438,1.28125 1.17187,-1.73438 3.04687,-1.73438 1.46875,0 2.25,0.8125 0.79688,0.8125 0.79688,2.5 l 0,6.76563 -1.67188,0 0,-6.20313 q 0,-1 -0.15625,-1.4375 -0.15625,-0.45312 -0.59375,-0.71875 -0.42187,-0.26562 -1,-0.26562 -1.03125,0 -1.71875,0.6875 -0.6875,0.6875 -0.6875,2.21875 l 0,5.71875 -1.67187,0 0,-6.40625 q 0,-1.10938 -0.40625,-1.65625 -0.40625,-0.5625 -1.34375,-0.5625 -0.70313,0 -1.3125,0.375 -0.59375,0.35937 -0.85938,1.07812 -0.26562,0.71875 -0.26562,2.0625 l 0,5.10938 -1.67188,0 z" />
</svg>
